<?xml version="1.0" encoding="UTF-8"?> <!-- Generator: Adobe Illustrator 22.0.1, SVG Export Plug-In . SVG Version: 6.00 Build 0) --> <svg xmlns="http://www.w3.org/2000/svg" xmlns:xlink="http://www.w3.org/1999/xlink" version="1.1" id="Layer_1" x="0px" y="0px" viewBox="0 0 123.348 77.12" style="enable-background:new 0 0 123.348 77.12;" xml:space="preserve"> <g> <g> <path style="fill:#162E55;" d="M6.684,62.288c0.004-2.163,0.005-2.551-0.024-2.995c-0.028-0.471-0.146-0.693-0.635-0.791 c-0.118-0.028-0.37-0.042-0.503-0.043c-0.059,0-0.118-0.028-0.118-0.083c0-0.083,0.074-0.111,0.237-0.11 c0.666,0.001,1.598,0.045,1.672,0.045c0.296,0.001,3.3,0.006,3.641-0.007c0.281-0.014,0.518-0.013,0.651-0.054 c0.089-0.028,0.148-0.083,0.207-0.083c0.059,0,0.089,0.056,0.089,0.125c0,0.097-0.075,0.264-0.12,0.652 c-0.015,0.138-0.046,0.748-0.076,0.915c-0.015,0.069-0.045,0.152-0.119,0.152c-0.074,0-0.103-0.069-0.103-0.167 c0-0.111-0.044-0.347-0.132-0.527c-0.089-0.18-0.428-0.431-1.006-0.445l-2.279-0.046c-0.089,0-0.133,0.042-0.133,0.152 l-0.007,3.827c0,0.083,0.015,0.124,0.103,0.125l1.894-0.01c0.252,0.001,0.459,0.001,0.666-0.012 c0.355-0.027,0.548-0.068,0.681-0.248c0.059-0.069,0.104-0.139,0.163-0.139c0.059,0,0.074,0.042,0.074,0.111 c0,0.083-0.074,0.319-0.12,0.776c-0.03,0.277-0.057,0.675-0.057,0.772c0,0.125-0.033,0.176-0.098,0.175 c-0.065,0-0.109-0.042-0.115-0.138c-0.005-0.096-0.045-0.199-0.117-0.32c-0.072-0.121-0.279-0.366-0.738-0.423 c-0.37-0.042-1.983-0.045-2.234-0.046c-0.074,0-0.104,0.027-0.104,0.125L7.922,64.73c-0.003,1.331-0.005,2.426,0.068,3.008 c0.044,0.402,0.132,0.707,0.576,0.764c0.207,0.028,0.533,0.057,0.666,0.057c0.089,0,0.118,0.042,0.118,0.083 c0,0.069-0.074,0.111-0.237,0.11c-0.814-0.002-1.746-0.045-1.82-0.045c-0.074,0-1.006,0.04-1.45,0.039 c-0.163,0-0.236-0.028-0.236-0.112c0-0.042,0.03-0.083,0.119-0.083c0.133,0,0.31-0.027,0.444-0.055 c0.296-0.055,0.371-0.36,0.431-0.762c0.075-0.582,0.077-1.677,0.08-3.008L6.684,62.288z"></path> <path style="fill:#162E55;" d="M19.56,58.098c3.33,0.006,5.812,1.979,5.806,5.21c-0.006,3.106-2.349,5.665-5.915,5.659 c-4.054-0.008-5.736-2.964-5.731-5.459C13.724,61.261,15.476,58.09,19.56,58.098z M19.851,68.441 c1.332,0.003,4.086-0.713,4.093-4.747c0.006-3.328-2.151-5.12-4.489-5.124c-2.471-0.005-4.324,1.517-4.33,4.553 C15.12,66.352,17.188,68.436,19.851,68.441z"></path> <path style="fill:#162E55;" d="M27.967,62.328c0.004-2.163,0.005-2.551-0.024-2.995c-0.029-0.471-0.147-0.693-0.635-0.791 c-0.118-0.028-0.37-0.043-0.503-0.043c-0.059,0-0.118-0.028-0.118-0.083c0-0.083,0.074-0.111,0.237-0.111 c0.666,0.001,1.568,0.045,1.702,0.045c0.133,0,1.021-0.04,1.465-0.039c0.163,0,0.237,0.028,0.236,0.112 c0,0.056-0.059,0.083-0.118,0.083c-0.103,0-0.192,0.014-0.37,0.041c-0.4,0.055-0.519,0.304-0.549,0.789 c-0.03,0.443-0.031,0.832-0.035,2.995l-0.004,1.941c-0.004,1.996,0.468,2.857,1.103,3.427c0.724,0.639,1.39,0.765,2.233,0.767 c0.903,0.002,1.791-0.399,2.325-0.994c0.682-0.789,0.862-1.967,0.865-3.395l0.003-1.733c0.004-2.163,0.005-2.551-0.024-2.995 c-0.029-0.472-0.147-0.694-0.635-0.792c-0.118-0.028-0.37-0.042-0.503-0.043c-0.059,0-0.118-0.028-0.118-0.083 c0-0.083,0.074-0.111,0.237-0.11c0.666,0.001,1.48,0.045,1.569,0.045c0.103,0,0.799-0.04,1.243-0.039 c0.163,0,0.237,0.028,0.236,0.111c0,0.055-0.059,0.083-0.118,0.083c-0.104,0-0.192,0-0.37,0.041 c-0.4,0.069-0.518,0.304-0.549,0.789c-0.03,0.444-0.031,0.832-0.035,2.995l-0.003,1.483c-0.003,1.497-0.184,3.16-1.369,4.143 c-1.067,0.885-2.177,1.021-3.05,1.02c-0.503-0.001-1.998-0.059-3.047-0.99c-0.724-0.653-1.284-1.625-1.28-3.649L27.967,62.328z"></path> <path style="fill:#162E55;" d="M41.24,66.928c0.027,1.137,0.175,1.498,0.574,1.609c0.281,0.07,0.606,0.085,0.74,0.085 c0.074,0,0.118,0.028,0.118,0.083c0,0.083-0.089,0.111-0.266,0.11c-0.844-0.002-1.435-0.044-1.569-0.045 c-0.133,0-0.755,0.04-1.421,0.039c-0.148,0-0.237-0.014-0.237-0.111c0-0.056,0.044-0.083,0.118-0.083 c0.118,0,0.385-0.013,0.607-0.082c0.37-0.096,0.445-0.498,0.447-1.76l0.03-7.944c0.001-0.541,0.046-0.693,0.164-0.693 c0.118,0,0.369,0.306,0.517,0.445c0.221,0.236,2.422,2.472,4.697,4.764c1.462,1.472,3.072,3.167,3.545,3.626l-0.15-7.043 c-0.013-0.901-0.116-1.206-0.575-1.318c-0.266-0.056-0.606-0.071-0.725-0.071c-0.104,0-0.118-0.042-0.118-0.097 c0-0.083,0.119-0.097,0.296-0.097c0.666,0.001,1.376,0.044,1.539,0.045c0.163,0,0.651-0.041,1.258-0.039 c0.163,0,0.266,0.014,0.266,0.098c0,0.056-0.059,0.097-0.163,0.096c-0.074,0-0.178,0-0.355,0.041 c-0.489,0.096-0.548,0.401-0.55,1.233l-0.045,8.124c-0.002,0.915-0.032,0.984-0.135,0.984c-0.118,0-0.295-0.153-1.079-0.889 c-0.162-0.139-2.29-2.181-3.855-3.764c-1.713-1.737-3.382-3.486-3.855-3.986L41.24,66.928z"></path> <path style="fill:#162E55;" d="M54.493,62.379c0.004-2.163,0.005-2.551-0.024-2.995c-0.029-0.472-0.147-0.693-0.635-0.791 c-0.118-0.028-0.37-0.043-0.503-0.043c-0.059,0-0.118-0.028-0.118-0.083c0-0.083,0.074-0.111,0.237-0.11 c0.666,0.001,1.598,0.045,1.672,0.045c0.177,0,1.11-0.04,1.998-0.038c1.465,0.003,4.173-0.117,5.931,1.592 c0.738,0.722,1.432,1.874,1.429,3.524c-0.003,1.747-0.775,3.09-1.606,3.907c-0.638,0.622-1.971,1.59-4.487,1.585 c-1.273-0.002-3.137-0.173-3.285-0.173c-0.074,0-1.006,0.04-1.45,0.039c-0.163,0-0.237-0.028-0.237-0.111 c0-0.042,0.03-0.083,0.118-0.083c0.133,0,0.311-0.027,0.444-0.055c0.296-0.055,0.371-0.36,0.431-0.762 c0.075-0.582,0.077-1.677,0.08-3.008L54.493,62.379z M55.733,63.878c-0.003,1.469,0.009,2.745,0.024,3.008 c0.014,0.346,0.043,0.901,0.161,1.054c0.192,0.264,0.768,0.556,2.514,0.559c1.376,0.003,2.65-0.466,3.525-1.283 c0.771-0.705,1.188-2.036,1.19-3.311c0.003-1.761-0.809-2.899-1.414-3.496c-1.389-1.375-3.075-1.573-4.836-1.576 c-0.296-0.001-0.844,0.04-0.962,0.095c-0.133,0.055-0.178,0.124-0.178,0.277c-0.015,0.471-0.018,1.886-0.02,2.953L55.733,63.878z"></path> <path style="fill:#162E55;" d="M70.042,58.734c0.178-0.457,0.238-0.54,0.327-0.54c0.089,0,0.148,0.069,0.325,0.5 c0.221,0.527,2.533,6.257,3.432,8.366c0.53,1.235,0.959,1.458,1.269,1.541c0.222,0.07,0.444,0.084,0.592,0.085 c0.089,0,0.148,0.014,0.148,0.083c0,0.083-0.133,0.111-0.296,0.11c-0.222-0.001-1.302-0.002-2.324-0.032 c-0.281-0.014-0.444-0.015-0.444-0.098c0-0.055,0.045-0.083,0.104-0.097c0.089-0.028,0.178-0.152,0.089-0.374l-1.369-3.413 c-0.03-0.056-0.06-0.084-0.133-0.084l-3.182-0.006c-0.074,0-0.119,0.042-0.148,0.111l-0.893,2.452 c-0.134,0.346-0.208,0.679-0.209,0.929c0,0.277,0.31,0.403,0.562,0.403l0.147,0c0.104,0,0.148,0.028,0.148,0.083 c0,0.083-0.089,0.111-0.222,0.111c-0.355-0.001-0.992-0.044-1.154-0.044c-0.163,0-0.977,0.04-1.672,0.039 c-0.192,0-0.281-0.028-0.281-0.112c0-0.056,0.059-0.083,0.133-0.083c0.104,0,0.311-0.013,0.429-0.027 c0.681-0.082,0.978-0.608,1.246-1.301L70.042,58.734z M71.571,64.283c0.074,0,0.074-0.041,0.059-0.097l-1.398-3.746 c-0.073-0.208-0.147-0.208-0.222,0l-1.309,3.741c-0.03,0.069,0,0.097,0.044,0.097L71.571,64.283z"></path> <path style="fill:#162E55;" d="M81.095,64.869c-0.003,1.331-0.005,2.426,0.068,3.008c0.044,0.402,0.132,0.707,0.576,0.764 c0.206,0.028,0.532,0.056,0.666,0.057c0.088,0,0.118,0.042,0.118,0.083c0,0.069-0.074,0.111-0.237,0.111 c-0.814-0.002-1.746-0.045-1.82-0.045c-0.074,0-1.006,0.04-1.45,0.039c-0.163,0-0.237-0.028-0.237-0.112 c0-0.042,0.03-0.083,0.118-0.083c0.133,0,0.311-0.027,0.444-0.055c0.296-0.055,0.371-0.36,0.431-0.762 c0.075-0.582,0.077-1.677,0.08-3.008l0.011-5.864l-2.19,0.023c-0.918,0.012-1.273,0.108-1.51,0.441 c-0.164,0.236-0.208,0.332-0.252,0.429c-0.045,0.111-0.09,0.138-0.149,0.138c-0.044,0-0.074-0.042-0.074-0.124 c0-0.139,0.299-1.331,0.328-1.441c0.03-0.083,0.089-0.263,0.149-0.263c0.103,0,0.251,0.139,0.651,0.168 c0.429,0.042,0.991,0.071,1.168,0.072l5.549,0.01c0.473,0.001,0.814-0.04,1.051-0.067c0.222-0.041,0.355-0.069,0.414-0.068 c0.074,0,0.074,0.083,0.073,0.166c-0.001,0.416-0.047,1.372-0.047,1.525c0,0.125-0.045,0.18-0.104,0.18 c-0.074,0-0.104-0.042-0.118-0.236l-0.015-0.152c-0.058-0.416-0.398-0.736-1.818-0.766l-1.865-0.031L81.095,64.869z"></path> <path style="fill:#162E55;" d="M89.892,64.886c-0.003,1.331-0.005,2.426,0.068,3.008c0.044,0.402,0.132,0.707,0.576,0.764 c0.207,0.028,0.533,0.057,0.666,0.057c0.089,0,0.119,0.042,0.119,0.083c0,0.069-0.074,0.111-0.237,0.11 c-0.814-0.001-1.746-0.045-1.82-0.045c-0.074,0-1.006,0.04-1.451,0.039c-0.163,0-0.236-0.028-0.236-0.112 c0-0.042,0.03-0.083,0.119-0.083c0.133,0,0.311-0.027,0.444-0.055c0.296-0.055,0.371-0.36,0.431-0.762 c0.075-0.582,0.077-1.677,0.079-3.008l0.005-2.44c0.004-2.163,0.005-2.551-0.024-2.995c-0.029-0.472-0.177-0.708-0.502-0.777 c-0.163-0.042-0.355-0.056-0.459-0.057c-0.059,0-0.118-0.028-0.118-0.083c0-0.083,0.074-0.111,0.237-0.111 c0.488,0.001,1.42,0.045,1.494,0.045c0.074,0,1.006-0.04,1.45-0.039c0.163,0,0.236,0.028,0.236,0.112 c0,0.056-0.059,0.083-0.118,0.083c-0.104,0-0.193,0.014-0.37,0.041c-0.4,0.069-0.519,0.304-0.549,0.789 c-0.031,0.443-0.031,0.832-0.035,2.995L89.892,64.886z"></path> <path style="fill:#162E55;" d="M98.892,58.248c3.33,0.006,5.812,1.979,5.806,5.21c-0.006,3.106-2.349,5.665-5.915,5.659 c-4.055-0.008-5.736-2.964-5.732-5.458C93.055,61.412,94.808,58.241,98.892,58.248z M99.183,68.591 c1.332,0.003,4.086-0.713,4.094-4.747c0.006-3.328-2.151-5.12-4.489-5.124c-2.471-0.005-4.324,1.517-4.329,4.553 C94.452,66.503,96.52,68.586,99.183,68.591z"></path> <path style="fill:#162E55;" d="M108.439,67.056c0.028,1.137,0.175,1.498,0.574,1.609c0.281,0.07,0.607,0.085,0.74,0.085 c0.074,0,0.118,0.028,0.118,0.083c0,0.083-0.088,0.111-0.266,0.11c-0.844-0.002-1.435-0.045-1.568-0.045 c-0.133,0-0.755,0.04-1.421,0.039c-0.148,0-0.237-0.014-0.236-0.111c0-0.056,0.045-0.083,0.118-0.083 c0.119,0,0.385-0.013,0.607-0.082c0.371-0.096,0.445-0.498,0.447-1.76l0.03-7.944c0.001-0.541,0.046-0.693,0.164-0.693 c0.118,0,0.369,0.306,0.517,0.444c0.222,0.236,2.423,2.472,4.697,4.764c1.463,1.472,3.073,3.167,3.545,3.625l-0.149-7.043 c-0.013-0.901-0.116-1.206-0.575-1.318c-0.266-0.056-0.607-0.071-0.725-0.071c-0.104,0-0.119-0.042-0.118-0.097 c0-0.083,0.119-0.097,0.296-0.097c0.666,0.001,1.376,0.044,1.539,0.045c0.163,0,0.651-0.041,1.258-0.039 c0.163,0,0.266,0.014,0.266,0.098c0,0.056-0.059,0.097-0.163,0.097c-0.074,0-0.178,0-0.355,0.041 c-0.488,0.096-0.548,0.401-0.55,1.233l-0.045,8.124c-0.002,0.915-0.032,0.984-0.136,0.984c-0.118,0-0.295-0.153-1.079-0.889 c-0.162-0.139-2.289-2.181-3.855-3.764c-1.713-1.737-3.382-3.486-3.855-3.986L108.439,67.056z"></path> </g> <g> <path style="fill:#162E55;" d="M60.251,11.876c0.58-1.594,0.773-1.884,1.063-1.884c0.29,0,0.483,0.241,1.063,1.739 c0.724,1.836,8.309,21.787,11.256,29.13c1.739,4.3,3.14,5.073,4.155,5.362c0.725,0.242,1.449,0.29,1.932,0.29 c0.29,0,0.483,0.048,0.483,0.29c0,0.29-0.435,0.387-0.966,0.387c-0.724,0-4.251,0-7.584-0.097 c-0.918-0.048-1.449-0.048-1.449-0.338c0-0.193,0.145-0.29,0.338-0.338c0.29-0.097,0.58-0.532,0.29-1.305l-4.493-11.884 c-0.096-0.193-0.193-0.29-0.435-0.29H55.517c-0.242,0-0.387,0.145-0.483,0.387l-2.899,8.551c-0.435,1.208-0.676,2.367-0.676,3.237 c0,0.966,1.014,1.401,1.836,1.401h0.483c0.338,0,0.483,0.096,0.483,0.29c0,0.29-0.29,0.387-0.725,0.387 c-1.16,0-3.237-0.145-3.768-0.145c-0.531,0-3.188,0.145-5.459,0.145c-0.628,0-0.918-0.097-0.918-0.387 c0-0.193,0.193-0.29,0.435-0.29c0.338,0,1.014-0.049,1.401-0.097c2.222-0.29,3.188-2.126,4.058-4.541L60.251,11.876z M65.275,31.2 c0.242,0,0.242-0.145,0.193-0.338l-4.59-13.044c-0.242-0.725-0.483-0.725-0.725,0l-4.251,13.044c-0.097,0.241,0,0.338,0.145,0.338 H65.275z"></path> </g> <g> <path style="fill:#162E55;" d="M86.83,24.678c0-7.536,0-8.889-0.097-10.435c-0.096-1.642-0.483-2.415-2.077-2.754 c-0.387-0.097-1.208-0.145-1.643-0.145c-0.193,0-0.386-0.097-0.386-0.29c0-0.29,0.241-0.387,0.773-0.386 c2.174,0,5.024,0.145,5.314,0.145c0.435,0,3.237-0.145,4.686-0.145c0.531,0,0.773,0.097,0.773,0.387 c0,0.193-0.193,0.29-0.387,0.29c-0.338,0-0.628,0.048-1.208,0.145c-1.304,0.241-1.691,1.063-1.787,2.754 c-0.097,1.546-0.097,2.898-0.097,10.435v2.898h0.193c0.821-0.918,9.565-9.807,11.304-11.691c1.352-1.401,2.608-2.657,2.608-3.478 c0-0.58-0.242-0.87-0.628-1.014c-0.242-0.097-0.435-0.193-0.435-0.386c0-0.242,0.242-0.338,0.58-0.338 c0.966,0,2.464,0.145,3.623,0.145c0.242,0,3.431-0.145,4.639-0.145c0.531,0,0.725,0.097,0.725,0.338 c0,0.241-0.097,0.338-0.483,0.338c-0.725,0-1.739,0.241-2.706,0.676c-1.981,0.87-3.044,2.077-5.218,4.155 c-1.208,1.159-9.613,9.372-10.628,10.58c1.256,1.401,11.305,11.787,13.285,13.623c4.059,3.768,4.88,4.541,7.199,5.507 c1.257,0.532,2.657,0.628,2.995,0.628c0.339,0,0.628,0.096,0.628,0.29c0,0.242-0.242,0.387-1.063,0.387h-2.464 c-1.353,0-2.271,0-3.334-0.097c-2.56-0.241-3.768-1.304-5.846-2.947c-2.174-1.787-12.416-12.85-14.734-15.7h-0.242v4.734 c0,4.638,0,8.454,0.242,10.483c0.145,1.401,0.435,2.464,1.884,2.657c0.677,0.097,1.449,0.193,1.884,0.193 c0.29,0,0.386,0.144,0.386,0.29c0,0.242-0.242,0.387-0.773,0.387c-2.367,0-5.169-0.145-5.556-0.145 c-0.386,0-3.188,0.145-4.637,0.145c-0.531,0-0.773-0.097-0.773-0.387c0-0.145,0.096-0.29,0.387-0.29 c0.435,0,1.014-0.097,1.449-0.193c0.966-0.193,1.208-1.256,1.401-2.657c0.242-2.029,0.242-5.845,0.242-10.483V24.678z"></path> </g> <path style="fill:#AFBED3;" d="M17.039,18.502C17.001,18.45,16.989,18.575,17.039,18.502L17.039,18.502z M16.899,30.514 c-0.015,0.002-0.059-0.015-0.058,0.033c0.003,0.148,0.266,0.097,0.304,0.087C17.088,30.563,16.969,30.474,16.899,30.514z M16.812,19.427c0,0.076,0.069,0.076,0.138,0.076c0.069-0.076,0.137-0.151,0.187-0.244C17.018,19.276,16.949,19.201,16.812,19.427z M17.434,19.377c-0.13-0.015-0.079,0.195-0.05,0.234C17.367,19.587,17.573,19.393,17.434,19.377z M16.049,29.604 c-0.021,0.011-0.041,0.023-0.062,0.038C16.032,29.643,16.046,29.626,16.049,29.604z M17.626,30.588 c0.018,0,0.031-0.006,0.041-0.016c-0.015-0.003-0.031,0.001-0.048,0.008C17.621,30.584,17.624,30.586,17.626,30.588z M16.056,29.491c-0.046,0,0,0.068-0.007,0.113c0.385-0.21,0.708,0.277,0.969,0.492l-0.069,0.076c0.069,0,0.206,0,0.283,0.027l0,0 c0.061-0.027,0.129-0.027,0.198-0.027C17.087,29.794,16.605,29.189,16.056,29.491z M30.074,13.677c0,0-0.069,0-0.084-0.014 c0.13,0.141,0.299,0.052,0.473,0.069c-0.084,0.01-0.148,0.096-0.252,0.096c0.344,0.151,0.893,0.303,1.168-0.151 c-0.206,0.076-0.343-0.076-0.481-0.151c-0.069,0-0.069,0.076-0.069,0.151c0-0.076-0.138-0.151-0.138-0.227 c-0.069,0-0.069,0.076-0.069,0.151c-0.12,0.066-0.241-0.041-0.361-0.069c-0.132,0.055-0.261-0.076-0.326,0.069 C30.005,13.601,30.074,13.601,30.074,13.677z M30.757,14.39l0.066-0.067c-0.137-0.005-0.275-0.01-0.412-0.016 c0.071,0.072,0.14,0.075,0.142,0.144c0.074,0.141-0.206-0.008-0.133,0.133c0.069,0.003,0.204-0.061,0.273-0.058 c0.002,0.069,0.002,0.069,0.005,0.139c0.064-0.136,0.201-0.13,0.318-0.145C30.966,14.468,30.831,14.532,30.757,14.39z M30.211,13.525c0.017,0,0.034,0.002,0.052,0.006c0.005-0.002,0.011-0.003,0.017-0.006H30.211z M29.566,14.432 c-0.007-0.006-0.017-0.009-0.027-0.012c0.001,0.001,0.002,0.002,0.003,0.003C29.551,14.426,29.559,14.431,29.566,14.432z M18.07,15.215c-0.092-0.003-0.095,0.068-0.098,0.139C18.039,15.351,18.042,15.28,18.07,15.215z M28.929,14.079 c0.005,0.031,0.158,0.095,0.174,0.101c-0.018-0.042-0.058-0.088-0.101-0.13c0.045,0.018,0.187-0.018,0.092,0.076 c0.141,0.073,0.21,0.075,0.348,0.079c-0.002-0.069-0.002-0.069-0.004-0.138c0.069,0.002,0.138,0.004,0.136-0.065 c0.002,0.069,0.004,0.138,0.073,0.141c0.04,0.001,0.08,0.002,0.106-0.011c0.018,0.038,0.209-0.019,0.103,0.086 c-0.207-0.007-0.415-0.013-0.55,0.12c0.208,0.006,0.346,0.011,0.554,0.018c-0.122-0.004-0.187,0.099-0.296,0.075 c0.028,0.021,0.044,0.054,0.092,0.055c-0.053-0.002-0.087-0.034-0.116-0.064c-0.008-0.003-0.016-0.005-0.025-0.009 c0.009,0,0.015,0.004,0.022,0.006c-0.045-0.048-0.079-0.091-0.16-0.011c0,0,0.002,0.069,0.004,0.137 c0.074,0.14,0.21,0.076,0.349,0.081c0.002,0.069-0.067,0.066-0.136,0.064c0.069,0.002,0.139,0.005,0.139,0.005 s0.003,0.069,0.005,0.138c-0.002-0.069,0.067-0.066,0.136-0.064c-0.003-0.069-0.005-0.138-0.005-0.138 c0.134-0.133,0.267-0.266,0.261-0.474c0.08,0.003,0.161,0.028,0.241,0.023c-0.042,0.009-0.072,0.019-0.072,0.021 c0-0.008,0.1,0.095,0.095,0.095c0.011,0.001,0.209,0.008,0.209,0.008c0.039-0.132-0.076-0.145-0.176-0.133 c0.039-0.011,0.077-0.031,0.114-0.069c-0.275-0.01-0.419-0.223-0.628-0.299c0.135-0.065-0.071-0.072-0.004-0.139 c-0.067,0.067-0.208-0.075-0.276-0.008c-0.065,0.137,0.144,0.212,0.148,0.35c-0.071-0.071-0.211-0.145-0.215-0.283 c-0.064-0.002-0.187-0.062-0.202,0.037c-0.021-0.029-0.047-0.054-0.089-0.062c0.028-0.009,0.055-0.023,0.083-0.05 c-0.14-0.073-0.206,0.063-0.345-0.009c-0.069-0.002-0.137,0.066-0.12,0.105c0.056,0.1,0.125,0.102,0.194,0.104 c0.002,0.069-0.137,0.065-0.066,0.136c-0.025,0.025-0.034,0.041-0.032,0.051c-0.037-0.034-0.074-0.065-0.103-0.088 C28.839,14.026,28.917,13.997,28.929,14.079z M14.239,16.331c0,0-0.15-0.029-0.204,0.099c0.097,0.005,0.167,0.109,0.219,0.196 c0.044-0.038,0.091-0.104,0.114-0.173C14.395,16.37,14.314,16.267,14.239,16.331z M14.864,15.283 c0.057,0.022,0.138-0.036,0.192-0.061C14.99,15.198,14.92,15.229,14.864,15.283z M17.619,30.581 c-0.066-0.075-0.132-0.077-0.198-0.078C17.471,30.677,17.552,30.608,17.619,30.581z M24.205,12.367 c-0.09-0.016-0.191-0.114-0.274-0.057c0.063,0,0.087,0.015,0.141,0.044C24.109,12.373,24.165,12.369,24.205,12.367z M27.132,12.919 c0.069,0.001,0.07,0.07,0.122,0.067C27.27,12.921,27.201,12.92,27.132,12.919z M27.365,15.219c0.076-0.04,0.149,0.098,0.147-0.038 c-0.07-0.001-0.07-0.001-0.141-0.002l0.07-0.067c-0.071-0.001-0.141-0.002-0.211-0.004C27.23,15.175,27.231,15.243,27.365,15.219z M27.211,14.664c-0.009,0.058-0.003,0.131,0.049,0.183l0.036,0.078C27.298,14.835,27.309,14.704,27.211,14.664z M22.059,12.827 L22.059,12.827c0.084-0.025,0.163,0.047,0.254,0.022c-0.042-0.041-0.185-0.055-0.199-0.109 C22.086,12.634,21.923,12.867,22.059,12.827z M23.271,12.466c-0.069-0.076-0.137-0.076-0.206-0.076c0,0-0.069,0.076-0.047,0.076 C23.065,12.466,23.202,12.466,23.271,12.466z M23.967,12.374c-0.002,0.049,0.126,0.042,0.148,0.016 C24.101,12.383,23.968,12.334,23.967,12.374z M25.455,18.336c-0.025,0.001-0.05,0.004-0.076,0.01 C25.411,18.346,25.436,18.342,25.455,18.336z M26.219,18.462c0.114-0.186,0.408-0.111,0.626-0.251 c0.216-0.209-0.004-0.283-0.152-0.426c-0.043-0.041-0.035-0.059-0.008-0.065c-0.037,0.006-0.065,0.021-0.065,0.064 c-0.146-0.002,0.07-0.21-0.22-0.143l0.073,0.071c-0.072,0.07-0.218-0.002-0.217,0.139c-0.074-0.071-0.074-0.071-0.147-0.142 c0,0.07,0.074,0.141,0.074,0.212c-0.001-0.071-0.147-0.141-0.147-0.212c-0.073,0-0.073,0.07-0.072,0.14 c-0.073,0-0.073,0-0.073-0.07c-0.073,0.07-0.146,0.141-0.219,0.211C25.6,17.92,25.6,17.92,25.527,17.85c0.073,0,0.073,0,0.073-0.07 c-0.073-0.07-0.073-0.14-0.146-0.14c-0.073,0-0.145-0.069-0.146,0.071c0.073,0,0.146-0.001,0.145,0.07 c-0.218-0.139-0.218,0.001-0.365,0.143c0.146,0.07,0.219-0.072,0.365-0.002c0.102,0-0.009,0.103-0.012,0.141 c-0.096,0-0.166,0.001-0.281,0.002c0.072,0.141,0.292,0.069,0.365,0.14c0,0.055-0.001,0.11-0.071,0.132 C25.713,18.323,25.922,18.551,26.219,18.462z M27.493,21.322c-0.151-0.003,0.146-0.227-0.08-0.232l0.075,0.002 c-0.152-0.079-0.212-0.271-0.29-0.433c-0.067-0.139-0.148-0.257-0.312-0.265c0.037-0.007,0.063-0.024,0.062-0.069 c-0.077-0.15,0.221-0.22,0.144-0.37c-0.149-0.002-0.299-0.005-0.448-0.007c0.149-0.072,0.147-0.22,0.22-0.292 c-0.074,0.073-0.222,0.144-0.373-0.005c0.076,0.148-0.073,0.221-0.146,0.368c0.075,0.001,0.075,0.001,0.063,0.065 c-0.117,0.136,0.089,0.268,0.006,0.396c0.053-0.048,0.106-0.086,0.159-0.086c0.077,0.151-0.073,0.225-0.072,0.376 c0.151,0.002,0.225-0.149,0.376-0.071l-0.074,0.075c0.077,0.153,0.078,0.229,0.08,0.382c-0.076-0.001-0.152-0.002-0.228-0.003 c-0.075-0.001-0.075,0.076-0.074,0.153c0.076,0.001,0.076,0.001,0.152,0.002c-0.075,0.076-0.074,0.153-0.226,0.152 c0.001,0.077,0.001,0.077,0.001,0.155c0.152-0.076,0.306,0.081,0.457,0.006c-0.15,0.153-0.38,0.073-0.531,0.305 c0.001,0.157,0.076,0.001,0.154,0.08l0.076-0.077l0.077,0.079c0.149-0.31,0.533-0.07,0.836-0.142 c0.076,0.002,0.152,0.004,0.148-0.152c-0.075-0.002-0.075-0.002-0.151-0.003c0.073-0.153,0.224-0.15,0.143-0.383 C27.644,21.325,27.569,21.323,27.493,21.322z M18.618,30.6L18.618,30.6c-0.095,0.004-0.095,0.004-0.094,0.087 c0.07,0.001,0.14,0.002,0.21,0.004C18.733,30.607,18.663,30.606,18.618,30.6z M18.103,30.347c-0.14-0.251-0.343,0.078-0.482-0.172 l-0.067,0.082c0.001,0.083,0.069,0.084,0.138,0.167c0.001,0.061,0.001,0.121-0.025,0.148c0.01,0.002,0.019,0.007,0.027,0.017 c0.069,0.084,0.139,0.168,0.207,0.169c0.068-0.082-0.071-0.167,0.049-0.15c0.156-0.012,0.225-0.011,0.363-0.009 C18.243,30.516,18.242,30.349,18.103,30.347z M26.415,20.481c-0.022,0.02-0.044,0.041-0.065,0.063 C26.382,20.523,26.402,20.502,26.415,20.481z M26.432,20.638c-0.275,0-0.481-0.151-0.619,0.151c0.069,0,0.069,0,0.138,0 c-0.138,0-0.138,0.076-0.206,0.151c0-0.151-0.069,0-0.138-0.076c0,0.076,0,0.076,0,0.152c0.138,0.075,0.138,0.227,0.069,0.378 c0,0.076-0.137-0.076-0.137,0.076c0.068,0,0.068,0,0.137,0c-0.069,0-0.069,0-0.146,0.027c0.077,0.048,0.146,0.124,0.283,0.124 c0.138,0,0.206-0.227,0.413-0.227l0.069,0.076c0-0.151,0-0.303,0.069-0.454l-0.069-0.076c0-0.076,0.069-0.076,0.138-0.076 c0-0.076,0-0.076-0.069-0.076C26.363,20.714,26.363,20.638,26.432,20.638z M14.357,15.832c0.057,0.046,0.13,0.045,0.191-0.012 C14.526,15.661,14.413,15.735,14.357,15.832z M29.116,24.446c0.045,0.033,0.121,0.035,0.123,0.118 c-0.004-0.165-0.009-0.33-0.013-0.494C29.231,24.234,29.081,24.312,29.116,24.446z M30.329,25.908 c-0.001-0.043,0.013-0.074,0.042-0.092c-0.064-0.1-0.043-0.208,0.018-0.287l0.008-0.063c-0.078,0.042-0.268,0.118-0.348,0.048 c-0.065-0.056-0.282-0.01-0.163,0.137C30.032,25.609,30.183,25.885,30.329,25.908z M29.102,25.226 c0.076,0.002,0.152,0.004,0.227-0.078c-0.08-0.169,0.066-0.414-0.09-0.584c-0.074,0.08-0.15,0.078-0.191,0.083 C29.169,24.811,29.022,25.057,29.102,25.226z M32.235,26.49c-0.145-0.088-0.288-0.092-0.449-0.204 C31.88,26.562,32.093,26.485,32.235,26.49z M36.505,28.975c0.026-0.055,0.027-0.11,0.027-0.165 C36.514,28.87,36.506,28.925,36.505,28.975z M32.415,17.163c0.016,0.017,0.032,0.036,0.064,0.07 C32.479,17.186,32.451,17.17,32.415,17.163z M30.623,16.779c0.016,0,0.032,0,0.048,0C30.659,16.763,30.644,16.756,30.623,16.779z M33.532,26.411c-0.112-0.047-0.176,0.115-0.314,0.111c0.002,0.082,0.002,0.082,0.004,0.165 C33.36,26.69,33.425,26.528,33.532,26.411z M31.595,14.173c0.008,0.012,0.076,0.038,0.119,0.012 c-0.043-0.005-0.252-0.082-0.261-0.002C31.477,14.183,31.586,14.16,31.595,14.173z M18.524,12.599 c-0.019,0.001-0.04,0.006-0.063,0.018C18.502,12.617,18.518,12.615,18.524,12.599z M33.647,24.043v-0.076v-0.076 c-0.069,0-0.138,0-0.138,0.076C33.509,24.043,33.578,24.043,33.647,24.043z M32.616,24.951c0.02,0.006,0.039,0.006,0.059,0.009 C32.666,24.952,32.649,24.951,32.616,24.951z M30.005,23.665c0.007-0.022,0.009-0.042,0.011-0.062 C29.992,23.618,29.978,23.636,30.005,23.665z M32.272,25.632v-0.01c-0.01-0.003-0.022-0.004-0.035-0.002 C32.247,25.627,32.257,25.632,32.272,25.632z M32.203,25.632c0.013-0.007,0.024-0.009,0.034-0.011 c-0.033-0.023-0.034-0.081-0.034-0.14C32.203,25.557,32.203,25.557,32.203,25.632z M33.303,24.119 c-0.012-0.026-0.024-0.047-0.036-0.068C33.177,24.069,32.969,24.119,33.303,24.119z M18.549,43.842 c-0.006-0.017-0.012-0.033-0.019-0.049C18.53,43.816,18.538,43.831,18.549,43.842z M29.211,20.279 c0.032-0.108,0.032-0.108-0.042-0.112c-0.028,0.028-0.056,0.043-0.085,0.052C29.136,20.235,29.185,20.306,29.211,20.279z M29.033,20.231c0.017-0.002,0.034-0.006,0.052-0.011C29.067,20.215,29.05,20.218,29.033,20.231z M29.026,20.236 c0.003-0.003,0.005-0.003,0.008-0.005c-0.027,0.003-0.054,0.003-0.081,0.001c-0.073-0.003-0.07,0.072-0.068,0.147 C28.955,20.308,28.955,20.308,29.026,20.236z M36.196,17.716c0.074,0.141,0.188-0.037,0.032-0.085l-0.13-0.125 C35.94,17.614,36.168,17.663,36.196,17.716z M31.97,13.779c0.088-0.005,0.203,0.014,0.275-0.038 C32.178,13.733,32.005,13.717,31.97,13.779z M34.713,17.846c0.137,0.081,0.129-0.063,0.244-0.088 c-0.057-0.115-0.194-0.195-0.319-0.06C34.705,17.702,34.709,17.774,34.713,17.846z M16.4,19.201c0.069,0,0.137-0.076,0.206-0.151 v0.227c0.206-0.076,0.275-0.227,0.412-0.378c0,0.227,0.206,0.151,0.275,0.227c0.069,0,0.069-0.076,0.065-0.146 c-0.065-0.005-0.134-0.005-0.202-0.005l0.069-0.076c-0.069-0.303-0.343-0.303-0.55-0.379C16.605,18.747,16.605,19.049,16.4,19.201z M21.876,40.88c-0.055,0.048-0.111,0.096-0.162,0.148c-0.007,0.024-0.015,0.048-0.023,0.072 C21.772,41.044,21.827,40.978,21.876,40.88z M15.918,16.628c0-0.041-0.005-0.059-0.014-0.066c0.18-0.023,0.373-0.202,0.44-0.377 c-0.22-0.162-0.495-0.162-0.7-0.011c0.068,0,0.068,0,0.068,0.076c0,0-0.068,0-0.137,0c-0.069,0.227,0.069,0.378,0.069,0.605 C15.712,16.703,15.85,16.703,15.918,16.628z M15.861,16.567c-0.024,0.009-0.052,0.017-0.08-0.015 C15.807,16.562,15.834,16.566,15.861,16.567z M17.398,14.192c-0.013-0.017-0.025-0.036-0.036-0.062 C17.361,14.165,17.376,14.182,17.398,14.192z M16.949,13.752h-0.206c0,0.076,0.069,0.076,0.137,0.076 C16.949,13.828,16.949,13.828,16.949,13.752z M15.566,30.49c0.003,0.02,0.004,0.04,0.009,0.061 C15.601,30.523,15.588,30.505,15.566,30.49z M17.626,14.291c-0.009-0.008-0.025-0.009-0.058-0.009 C17.584,14.282,17.604,14.286,17.626,14.291z M19.168,23.691c-0.011,0.011-0.02,0.026-0.02,0.05 C19.163,23.724,19.167,23.707,19.168,23.691z M15.361,16.128c-0.038-0.006-0.078,0.007-0.116,0.036 c-0.04,0.006-0.08,0.02-0.12,0.041C15.172,16.242,15.34,16.242,15.361,16.128z M27.074,14.016c0,0,0.07,0.001,0.073-0.029 c0.066,0.031,0.066,0.031,0.065-0.037C27.143,13.949,27.073,13.948,27.074,14.016z M26.674,16.054 c0.072,0.069,0.071,0.001,0.084-0.084c-0.005-0.056-0.035-0.088-0.074-0.108c0.022-0.002,0.044-0.007,0.068-0.019 c-0.083-0.132-0.224-0.065-0.366-0.066c0.069,0.001,0.122,0.034,0.176,0.059c-0.073-0.002-0.144,0.01-0.175,0.01 C26.459,15.983,26.602,15.985,26.674,16.054z M26.771,15.419c0.015,0.089,0.248,0.035,0.286,0.027 c-0.045-0.031-0.091-0.05-0.142-0.07C26.857,15.354,26.803,15.376,26.771,15.419z M25.813,16.458l-0.009,0.032 c0.019,0.032,0.614,0.052,0.368-0.145C26.06,16.387,25.923,16.427,25.813,16.458z M10.354,22.713 c-0.023-0.041-0.022-0.116-0.021-0.191c-0.031,0-0.047,0.001-0.063,0.001c0.003-0.004,0.007-0.007,0.01-0.012 c0.001-0.002,0.051-0.202,0.056-0.194c-0.021-0.037-0.114,0.096-0.112,0.091c0.016-0.042,0.058-0.039,0.035-0.104 c-0.182-0.093-0.108,0.166-0.035,0.22c-0.007,0-0.014,0-0.024,0c0.066,0.074,0.063,0.3,0.196,0.223 C10.396,22.746,10.33,22.747,10.354,22.713z M24.095,17.687c0,0,0.069,0,0.137,0l-0.069,0.076c0.412,0.076,0.55-0.454,0.962-0.529 c0-0.076,0-0.076,0-0.152c0.137,0,0.206,0.076,0.275,0.152c0.069,0,0.069-0.076,0.069-0.152c0.069,0.076,0.206,0.076,0.275,0.076 c0.206-0.076,0.344-0.303,0.609-0.288c0.147-0.09,0.284-0.166,0.422-0.166c-0.275-0.151-0.618-0.303-0.893,0 c0-0.076-0.069-0.076-0.138-0.076c0.138,0,0.138-0.076,0.275-0.076h-0.275c0-0.076,0-0.076,0-0.151 c0.123,0,0.354-0.001,0.402-0.163c0.164,0.099,0.327,0.254,0.491,0.314l0.069-0.076c0,0.076,0.069,0.076,0.137,0.076 c0.069-0.454-0.412-0.605-0.756-0.681c0.069,0,0.138,0,0.138-0.076c-0.069-0.076-0.138-0.076-0.206-0.076 c0.137-0.076,0.275-0.151,0.412-0.227v0.137c-0.067-0.016-0.143,0.011-0.189,0.011c0.072,0.205,0.213,0.002,0.285,0.063 c-0.009-0.015-0.019-0.028-0.029-0.038c0.183,0.052,0.367,0.037,0.551-0.097c-0.069-0.076-0.138-0.076-0.206-0.076v0.076 c-0.069-0.076-0.069-0.076-0.137-0.151c0.206-0.227,0.344,0,0.55,0c-0.069-0.076-0.069-0.076-0.137-0.151 c-0.069,0-0.069,0-0.069,0.076c-0.138,0-0.069-0.227-0.206-0.227h0.344c0-0.076,0-0.151-0.069-0.151l0.069-0.076 c-0.206-0.151-0.413,0-0.55-0.227c0.26,0,0.459-0.132,0.713-0.019c-0.025-0.027-0.026-0.079-0.026-0.133 c-0.137,0.076-0.275-0.076-0.412-0.151h0.275c-0.015-0.033-0.034-0.054-0.055-0.069c0.005,0,0.008,0,0.014,0 c0,0-0.006,0-0.015-0.001c-0.021-0.015-0.045-0.021-0.071-0.024c0.011-0.378-0.055-0.385-0.054,0 c-0.052,0.005-0.107,0.017-0.163,0.017l-0.069,0.076c0.069-0.303,0.206-0.454,0.413-0.53c-0.069,0-0.069,0-0.137,0 c0.069,0,0.069-0.076,0.069-0.151h0.275c0-0.076,0-0.076,0-0.151c-0.056,0-0.122,0.001-0.187,0.011 c-0.003-0.065-0.07-0.066-0.136-0.046c-0.001,0.07,0.024,0.073,0.06,0.064c-0.064,0.021-0.12,0.057-0.149,0.122 c0-0.076,0-0.151,0.069-0.227c0.206-0.076,0.412,0.076,0.55-0.076h-0.344c0.344,0,0.687-0.076,0.962-0.378 c-0.344-0.151-0.618-0.151-0.893,0.076c-0.069,0-0.137,0-0.206-0.076c-0.069-0.076-0.069,0-0.069,0.076 c-0.069,0-0.069,0-0.069-0.076c-0.069,0-0.206,0.076-0.275,0.076c-0.069,0.151-0.206,0.227-0.343,0.227 c0.137-0.151,0.343-0.151,0.343-0.454c-0.275,0-0.55,0.151-0.824,0.227c0.069-0.152,0.206-0.152,0.343-0.152 c-0.271-0.1-0.513-0.132-0.764-0.101c0.309-0.049,0.639-0.05,0.97-0.05c0.137-0.076,0.275,0,0.412-0.152 c-0.137-0.151-0.343-0.227-0.55-0.076c-0.069,0-0.069-0.076-0.137-0.076c0.069-0.076,0.137,0.076,0.137-0.076h-0.137 c-0.069-0.151-0.206-0.151-0.344-0.151l-0.069,0.076c-0.343-0.076-0.618-0.076-0.962-0.076v-0.076 c-0.206,0-0.206,0.152-0.412,0.076c0,0.151-0.138,0-0.138,0.076c0,0.151,0.138,0,0.206,0.076c-0.128,0.047-0.283,0.065-0.431,0.035 c-0.055-0.038-0.106-0.08-0.175-0.067c0.016,0.012,0.035,0.02,0.053,0.029c-0.046-0.019-0.092-0.042-0.134-0.073 c-0.206-0.076-0.344,0.151-0.55,0.076c0.206,0.227,0.344,0.076,0.619,0.076c0.069,0,0.137,0.076,0.206,0.151 c-0.069,0-0.138,0-0.206-0.076l-0.069,0.076c-0.206-0.151-0.344-0.076-0.55-0.076c0.015,0.016,0.026,0.036,0.037,0.057 c-0.128-0.056-0.286-0.009-0.398-0.007c0.069-0.001,0.138-0.002,0.148,0.112c0.117,0.022,0.244,0.143,0.319-0.012 c0.009,0.007,0.02,0.012,0.032,0.016v0.214c-0.206,0-0.344-0.076-0.481-0.227h-0.481c0.069,0.076,0.138,0.076,0.206,0.151 c-0.206,0.227-0.481-0.076-0.618,0.151c0-0.076,0-0.151-0.069-0.227c-0.269-0.148-0.472-0.006-0.739,0.142 c-0.239-0.043-0.356,0.106-0.292,0.388c-0.069-0.151-0.206-0.076-0.344-0.076v0.076c-0.206,0.076-0.481,0.151-0.687,0.303 c0.138,0.151,0.275,0.076,0.412,0.076l0.069-0.076c0,0.151-0.206,0.227-0.206,0.378c-0.343,0.151-0.825,0.075-1.1,0.454 c0.138,0.151,0.275,0,0.412,0.076l-0.069,0.076c0.206,0.151,0.413-0.227,0.619,0.076c-0.206-0.076-0.481,0.076-0.687,0.076 c0,0.076,0,0.151,0.069,0.151h0.275c-0.069,0-0.206,0-0.137,0.151c0.059,0.13,0.218,0.038,0.349,0.056 c-0.004-0.011-0.005-0.027-0.005-0.056c0.412,0,1.1-0.303,1.306,0.303c0.069,0,0.069,0,0.137,0c0,0.207,0.161,0.378,0.196,0.611 l-0.06,0.039l-0.046,0.021c0.017,0.007,0.083,0,0.11-0.022c0.003,0.037,0.004,0.075-0.001,0.115 c-0.044,0.001-0.079,0.021-0.103,0.061c0.035-0.002,0.074-0.026,0.102-0.059c-0.007,0.067-0.026,0.139-0.061,0.219l0.069,0.076 c0.138-0.076,0.275-0.076,0.343-0.151c0,0.075,0,0.151-0.069,0.151c0.137,0,0.275,0.076,0.344,0.151c0,0.076,0,0.076,0,0.151 c-0.138-0.227-0.413-0.151-0.619-0.151c0.041,0.068,0.102,0.114,0.171,0.147c-0.074-0.013-0.181-0.048-0.239,0.08 c0,0.076,0.069,0.076,0.047,0.134c0.159,0.017,0.296,0.017,0.434,0.017c0.066-0.219-0.188-0.086-0.204-0.214 c0.156,0.062,0.346,0.063,0.479,0.063c-0.003,0.007-0.006,0.013-0.009,0.02c-0.062-0.011-0.124-0.052-0.115,0.043 c0.029,0.007,0.061,0.009,0.095,0c-0.178,0.325-0.719,0.418-0.589,0.845h0.075c-0.016,0.04,0.022,0.151-0.075,0.151 c0.138,0.151,0.069,0.378,0.275,0.53c0-0.076,0-0.152,0-0.152s0.069,0,0.138,0v0.227c-0.069,0-0.138,0-0.138,0s0,0.076,0,0.151 l0.069-0.076c0,0.152,0.069,0.303,0.206,0.454c0.206,0.151,0.412,0.303,0.618,0.454c0.343,0.227,0.343-0.151,0.55-0.303 c0.069-0.076,0.069-0.227,0.069-0.303l-0.069-0.076c0.206-0.076,0.412-0.303,0.343-0.605l-0.069-0.076c0.069,0,0.069,0,0.137,0 c0.138-0.076,0.069-0.303,0.412-0.227C24.095,17.763,24.095,17.687,24.095,17.687z M21.209,13.072v-0.13 c0.056,0.032,0.103,0.095,0.154,0.144C21.306,13.073,21.247,13.072,21.209,13.072z M16.427,14.939 c0.128,0.051,0.196-0.108,0.051-0.137C16.382,14.796,16.326,14.899,16.427,14.939z M19.904,15.114 c-0.02-0.011-0.041-0.016-0.064-0.02C19.847,15.112,19.862,15.114,19.904,15.114z M21.05,22.673 c0.003-0.079,0.007-0.157,0.08-0.161c-0.106-0.053-0.213-0.062-0.294,0.002c0.003-0.021,0.004-0.043,0.005-0.066 c-0.076,0.082-0.146,0.008-0.142-0.071l0.076-0.082c-0.073,0.004-0.145,0.007-0.221,0.09c0.08-0.16,0.156-0.242,0.223-0.419 c0.019-0.136-0.061,0.022-0.13-0.051c-0.116,0.161-0.197,0.36-0.278,0.559c-0.081,0.2-0.162,0.4-0.277,0.564 c0.216-0.012,0.361-0.019,0.582-0.11c-0.003,0.079-0.003,0.079-0.076,0.083c0.073-0.004,0.146-0.007,0.218-0.011 c-0.076,0.083-0.152,0.166-0.225,0.17c0.143,0.072,0.225-0.17,0.375-0.256c-0.003,0.08-0.006,0.159-0.009,0.239l0.076-0.083 c-0.003,0.08-0.003,0.08-0.006,0.159c0.076-0.083,0.076-0.083,0.153-0.166c0.003-0.08,0.006-0.159-0.067-0.156 c0.073-0.003,0.076-0.083,0.079-0.162c-0.003,0.079-0.079,0.162-0.156,0.245c-0.143-0.072,0.08-0.162,0.009-0.238 c0.073-0.003,0.077-0.082,0.15-0.086C21.123,22.669,21.123,22.669,21.05,22.673z M27.351,14.642 c0.01,0.011,0.023,0.019,0.043,0.019C27.379,14.652,27.365,14.648,27.351,14.642z M40.924,31.489 c-0.021,0.078-0.054,0.29-0.028,0.337C40.894,31.777,40.991,31.512,40.924,31.489z M34.815,37.437 c-0.206-0.076-0.137,0.151-0.275,0.227v-0.076c-0.137,0.076-0.343,0.152-0.412,0.303c-0.069,0.152,0.137,0.303,0.069,0.454 c-0.206,0.302-0.138,0.681-0.275,0.983c0.275,0.227,0.481-0.076,0.618-0.303c0.069-0.378,0.206-0.757,0.412-1.059 c0-0.151-0.069-0.378,0.069-0.53c0,0.076,0,0.076,0.069,0.076c0-0.076,0-0.151,0.008-0.209c-0.008-0.018,0.061-0.093,0.061-0.093 c-0.069-0.152-0.069-0.303-0.137-0.379C34.952,37.058,34.746,37.21,34.815,37.437z M39.318,32.238 c-0.016,0.199-0.061,0.353-0.049,0.559c0.021,0.362,0.335,0.068,0.195-0.257C39.422,32.442,39.396,32.275,39.318,32.238z M18.44,17.66c-0.043-0.025-0.119,0.045-0.035,0.093v0C18.531,17.825,18.62,17.602,18.44,17.66z M25.036,10.547 c-9.511,0-17.221,7.632-17.221,18.248c0,10.616,7.71,18.221,17.221,18.221c9.511,0,17.221-7.604,17.221-18.221 C42.257,18.179,34.547,10.547,25.036,10.547z M39.205,24.356L39.205,24.356c-0.117,0.216-0.314-0.096-0.5-0.029 c-0.123,0.07,0.008,0.229-0.115,0.3c-0.065-0.079-0.068-0.156-0.07-0.232C38.634,24.096,38.953,24.262,39.205,24.356z M38.001,18.124c0.021,0.031,0.041,0.062,0.062,0.092h-0.088C37.984,18.188,37.993,18.157,38.001,18.124z M37.769,18.898 c0.206,0,0.206-0.303,0.343-0.303v-0.303c0.069,0.102,0.136,0.206,0.202,0.31c-0.006,0.048-0.021,0.097-0.065,0.145 c-0.206,0.303-0.481,0.378-0.756,0.076C37.563,18.822,37.7,18.747,37.769,18.898z M17.966,12.821 c0.003,0.008,0.007,0.016,0.014,0.024c-0.008-0.008-0.015-0.013-0.022-0.019C17.96,12.824,17.963,12.822,17.966,12.821z M17.783,12.921c0.164,0.003,0.283,0.029,0.403,0.226c-0.105-0.174-0.252-0.214-0.407-0.224L17.783,12.921z M18.323,13.374 c0.069,0.151,0.206,0.076,0.275,0.076c-0.137,0.076-0.343-0.076-0.481,0.076h0.206c-0.124,0.045-0.273,0.064-0.416,0.104 c0.203-0.119,0.321-0.387,0.622-0.331c-0.137,0-0.206,0-0.275,0.151L18.323,13.374z M18.117,13.904 c-0.022,0.024-0.05,0.038-0.081,0.049C18.058,13.931,18.075,13.904,18.117,13.904z M17.755,12.936 c0.029,0.011,0.058,0.027,0.088,0.059c-0.079,0-0.135,0.023-0.195,0.002C17.683,12.977,17.719,12.956,17.755,12.936z M16.882,13.465c0.026,0.001,0.052,0.003,0.077,0.003c-0.043,0.008-0.086,0.019-0.129,0.031 C16.847,13.487,16.865,13.476,16.882,13.465z M11.727,18.973h0.206c-0.073-0.081-0.166-0.096-0.268-0.094 c0.026-0.042,0.052-0.084,0.078-0.125c0.139-0.058,0.284-0.106,0.444-0.094c-0.039,0.003-0.078,0.034-0.116,0.162 c0.137,0,0.275-0.076,0.328,0.088c-0.122-0.012,0.016,0.139-0.053,0.139c-0.069,0-0.137,0-0.137-0.076 c-0.069,0-0.137,0.076-0.137,0.151h0.03c-0.077,0.04-0.139,0.151-0.236,0.151c0.069-0.076,0.138-0.151,0.206-0.151 c-0.206-0.151-0.206,0.227-0.412,0.151c0-0.151,0.069-0.151,0.137-0.227C11.796,18.973,11.796,18.973,11.727,18.973z M12.758,20.033c-0.118,0.065-0.135-0.092-0.18-0.186c0.208,0.317,0.532,0.101,0.73-0.117c0.069,0.076,0.138-0.076,0.153,0.079 c-0.084-0.003-0.153,0.148-0.29,0.073c0,0.076,0,0.076,0,0.151c-0.275,0.151-0.55,0.53-0.893,0.227h0.275 C12.483,20.108,12.689,20.108,12.758,20.033z M11.04,22.908h-0.09C10.98,22.886,11.01,22.875,11.04,22.908z M41.106,31.005 c-0.988,8.781-7.787,15.578-16.029,15.578c-8.921,0-16.153-7.963-16.153-17.788c0-2.402,0.433-4.693,1.217-6.783 c0.001,0.029,0.018,0.089,0.029,0.104c0.013,0.016,0.013,0.034,0.035,0.03c-0.011-0.038-0.029-0.117-0.052-0.145 c-0.003-0.003-0.004-0.003-0.006-0.004c0.009-0.023,0.017-0.047,0.026-0.07c0.075,0.037-0.022,0.22,0.099,0.219 c0.108-0.122-0.042-0.193-0.07-0.294c0.008-0.02,0.016-0.039,0.023-0.059c0.017,0.023,0.047,0.035,0.052,0.008 c0.004-0.02-0.016-0.049-0.03-0.065c0.013-0.034,0.027-0.068,0.04-0.101c0.007,0.018,0.007,0.039-0.004,0.064 c0.069,0.076-0.069,0.151,0,0.227c0.069-0.076,0.069-0.151,0.137-0.151l0.069,0.076c0,0.076,0,0.151-0.069,0.227 c0.069,0.076,0.137-0.076,0.206,0c-0.125,0.138-0.023,0.276,0.049,0.414c-0.013,0.015-0.014,0.057-0.015,0.1 c0.047-0.001,0.06-0.001,0.06,0.015c0.006-0.042,0.007-0.092,0.007-0.092c-0.013-0.015-0.023-0.022-0.031-0.026 c0.001-0.026,0.004-0.053,0.011-0.079c0.055,0.131,0.057,0.209,0.057,0.349l0.069-0.076c0,0.076,0.069,0.076,0.138,0.076 c-0.069,0-0.138,0-0.206,0.076c0.137,0,0,0.151,0.069,0.151c0.003,0,0.005-0.001,0.008-0.002c0.044,0.202,0.28,0.092,0.404,0.229 c-0.069,0.076,0,0.151,0.069,0.151c0.069,0.227,0.069-0.151,0.138,0c-0.106,0.174,0.071,0.392,0.035,0.519 c-0.034-0.022-0.035-0.08-0.035-0.141c-0.069,0-0.138,0-0.206-0.076l-0.069,0.076c0,0.076,0.069,0.076,0.069,0.151 c0,0.681-0.137,1.287-0.069,1.892c0.069,0.076,0,0.303,0.206,0.303c0,0.303,0.069,0.53,0.138,0.757 c0.206-0.076,0.275,0.227,0.412,0.302c0.137,0.378,0.137,0.833,0.412,1.211c-0.069,0-0.137,0-0.137-0.076 c-0.069,0.227,0.206,0.151,0.275,0.303c-0.069,0.303,0.137,0.53,0.275,0.757c0.069-0.076,0.069-0.227,0.069-0.303 c-0.069,0-0.069,0-0.137,0c-0.069-0.303-0.206-0.681-0.275-0.984c-0.206-0.151-0.275-0.378-0.206-0.605l0.069-0.076 c0.206,0.303,0.206,0.681,0.412,0.984c0.069,0,0.137,0,0.137,0.076v0.227c0.206,0.379,0.481,0.681,0.55,1.135h-0.069 c-0.069,0.227,0.206,0.303,0.206,0.454c0.275,0.151,0.55,0.454,0.756,0.681c0.069,0.076,0.069,0,0.069-0.076 c0,0.076,0.069,0.151,0.138,0.076c0.069-0.076,0.206-0.076,0.344,0c0.069,0.454,0.55,0.53,0.825,0.757h-0.069 c0.069,0,0.137,0.076,0.137,0.076c0.069,0.152,0.138,0.303,0.138,0.454c0.137,0.076,0.275,0.152,0.343,0.303 c0.069,0.076,0.069,0.151,0.069,0.227h0.206c0,0.151,0.069,0.151,0.137,0.227c0.069-0.076,0.069-0.151,0.069-0.227 s0-0.227,0.137-0.151c0.069,0,0.069,0.076,0.138,0.151v-0.076c0.069,0.378,0.206,0.757,0.206,1.135 c-0.137,0.378-0.481,0.681-0.412,1.135c0.069,0,0.069,0.075,0.137,0.075c0,0.227-0.275,0.378-0.069,0.681 c0.412,0.606,0.687,1.211,0.962,1.892c0.206,0.152,0.412,0.303,0.618,0.454c0.275,0.151,0.137,0.529,0.344,0.681 c0,0.378-0.069,0.757,0,1.135c-0.138,0.227,0,0.53-0.138,0.757c0.138,0.076,0.206,0.227,0.069,0.378l0.069,0.076 c-0.069,0.227-0.138,0.53-0.206,0.757c0.206,0.227-0.069,0.53,0,0.757h0.206c-0.069,0.152-0.069,0.303-0.069,0.454 c0.069,0,0.069,0,0.069,0.076c0,0.117-0.082,0.235-0.087,0.352c-0.025-0.055-0.072-0.072-0.119-0.125 c-0.137,0.075-0.137,0.151-0.137,0.303c0-0.151,0.069,0,0.137-0.075c0.137,0.075,0.069,0.227,0.137,0.302 c-0.047,0-0.093-0.002-0.118-0.026c0.104,0.294-0.005,0.644,0.255,0.859c0.069-0.076-0.069-0.152,0.069-0.152 c0,0.076,0,0.076,0,0.152c0,0.075-0.069,0.075-0.137,0.075c-0.069,0.227,0.137,0.227,0.275,0.378c0,0,0.069,0,0.138,0v-0.227 c0.137,0.075,0.206-0.076,0.275-0.152l0.069,0.076c0.069-0.151-0.138-0.227-0.138-0.378c0.069,0,0.069-0.076,0.069-0.152 c0.069,0.227,0.069-0.151,0.137,0c-0.069-0.227,0.138-0.302,0.275-0.454c-0.137-0.151-0.344-0.227-0.275-0.454 c0.275,0,0.275-0.227,0.344-0.454c0.069,0,0.069,0,0.138,0v-0.227c-0.069,0-0.069,0.075-0.069,0.151 c0-0.076-0.069-0.076-0.138-0.076c-0.069-0.378,0.206-0.227,0.412-0.227v-0.378c0.138,0.151,0.344,0.076,0.481,0.076 c0.206,0,0.137-0.303,0.344-0.303c-0.069-0.227-0.275-0.378-0.412-0.53c0.137-0.076,0.275,0.076,0.412,0.151 c0.32,0.059,0.516-0.202,0.619-0.498c-0.022,0.015-0.043,0.03-0.069,0.044c0.026-0.044,0.058-0.08,0.092-0.116 c0.018-0.063,0.034-0.126,0.045-0.187c0.069,0,0.069,0,0.137,0c-0.007,0.015-0.013,0.025-0.02,0.039 c0.099-0.088,0.191-0.184,0.226-0.341c-0.138-0.454,0.343-0.757,0.687-0.832l-0.069-0.075c0.893,0.151,0.962-1.135,0.962-1.816 c0.138-0.076,0.275-0.227,0.412-0.378c0.275-0.303,0.344-0.757,0.135-1.138c-0.341-0.073-0.547-0.375-0.89-0.527 c-0.252,0.069-0.504-0.241-0.756-0.002c-0.002-0.302-0.481-0.678-0.756-0.452c0-0.151-0.069-0.151-0.137-0.227h-0.206 c-0.069-0.151,0.069-0.227,0.138-0.303c0-0.151-0.206-0.076-0.206-0.227c-0.069-0.605-0.687-0.984-1.168-0.908 c0-0.151-0.069-0.151-0.137-0.227l-0.069,0.076c0-0.227-0.138-0.454-0.344-0.53c0,0.151-0.069,0-0.138,0.076 c-0.069-0.152,0.069-0.152,0.069-0.227c-0.069-0.151-0.275-0.151-0.343-0.303c0-0.151,0.069,0,0.137-0.076h-0.343l0.069,0.076 c-0.275,0.076-0.481-0.076-0.756-0.076l0.069-0.076c-0.069-0.152-0.206-0.152-0.275-0.227c-0.344,0.076-0.206,0.303-0.206,0.605 c-0.275-0.151-0.137-0.53-0.069-0.757c-0.069,0-0.069,0-0.137,0c-0.069,0-0.069,0.076-0.069,0.151c-0.069,0-0.069,0-0.137,0 c-0.069,0-0.069,0.076-0.137,0.151c0-0.076,0-0.076-0.069-0.076c-0.069,0.076-0.069,0.152-0.069,0.227l0.069,0.076 c-0.106,0.058-0.21,0.117-0.222,0.244c-0.01-0.031-0.024-0.062-0.052-0.092c-0.069-0.076-0.275-0.076-0.344-0.227 c-0.069,0.151-0.206,0.151-0.343,0.151c-0.344-0.378-0.275-0.908-0.206-1.362c0-0.076-0.069-0.076-0.069-0.151 c-0.206,0-0.413,0-0.55-0.151c0,0.151-0.069,0-0.137,0.076c0.126-0.139,0.079-0.343,0.07-0.551 c0.016,0.013,0.039,0.024,0.058,0.036c-0.039-0.273,0.078-0.49,0.078-0.772c-0.138,0-0.344,0.151-0.481,0.076 c0,0.076,0,0.227,0.069,0.303c-0.069,0.076-0.069,0.227-0.206,0.303c-0.55,0.227-0.687-0.454-0.756-0.908 c0-0.378-0.069-0.832,0.069-1.211c0.138-0.151,0.275-0.302,0.413-0.454h0.275c0,0.076,0.069,0.151,0.206,0.227 c0.069-0.076-0.069-0.151,0.069-0.151c0,0.076,0,0.151,0,0.151c0.069,0.076,0.069,0,0.069-0.076c-0.138,0,0-0.227-0.138-0.151 c0-0.076,0-0.076,0-0.151c0.069,0.076,0.138,0.076,0.206,0.076l0.069-0.076l0.069,0.076c0.206-0.227,0.206,0.151,0.412,0.151 c0-0.076,0-0.076,0-0.151c0.343,0.151,0.206,0.605,0.275,0.832l0.069-0.076c-0.069,0.151,0.069,0.227,0.138,0.303 c0,0.076,0,0.076,0,0.151c0.343-0.454-0.138-0.984-0.069-1.513c0.137-0.076,0.206-0.227,0.206-0.378 c0.206-0.227,0.344-0.378,0.55-0.605l-0.069-0.076c0.069,0,0.069,0,0.137,0c0-0.076-0.069-0.227,0.069-0.303 c-0.069,0-0.138,0-0.138-0.076c0.184-0.067,0.041-0.194,0.056-0.275c0.008,0.012,0.013,0.027,0.013,0.048 c0.069-0.151-0.069-0.303,0.069-0.454v0.681c0-0.227,0.206-0.378,0.138-0.605c0.068,0.152,0.068-0.076,0.137,0 c0.069-0.076-0.069-0.151,0.069-0.151c-0.069-0.075,0.069-0.151-0.069-0.151c0.069-0.302,0.343-0.151,0.481-0.378 c0,0.151,0.069,0,0.137,0.076c0-0.076,0-0.076,0.069-0.076c-0.069,0-0.069,0-0.137,0c-0.069-0.227,0.069-0.378,0.137-0.53v0.076 c0.206,0,0.206-0.227,0.275-0.378v0.076c0.187-0.069,0.428-0.2,0.626-0.337c0.004,0.017,0.012,0.038,0.012,0.06 c0.025-0.024,0.071-0.026,0.118-0.026c-0.137,0.151-0.343,0.227-0.412,0.378c0,0.076,0,0.076,0,0.151 c0.206,0.076,0.275-0.151,0.344-0.303c0.069,0,0.069,0,0.069,0.076c0.206,0,0.206-0.303,0.412-0.303v-0.11 c0.052,0.084,0.195,0.005,0.263-0.07c-0.066-0.055-0.131-0.125-0.055-0.238c-0.056-0.025-0.252,0.179-0.227,0.242 c0.001,0.015,0.005,0.026,0.008,0.038l-0.057,0.063c-0.069-0.151-0.206-0.076-0.343,0c-0.069-0.151-0.137-0.303-0.137-0.53v0.076 c-0.034-0.037-0.051-0.074-0.068-0.102c0.123-0.053,0.188-0.181,0.137-0.352c-0.413,0.076-0.687,0.302-0.962,0.681 c0-0.227,0.206-0.303,0.275-0.53c0.275-0.076,0.481-0.227,0.618-0.454c0.412,0,0.893,0.076,1.237-0.378c0.069,0,0.137,0,0.137,0 c0.069-0.076,0.206-0.151,0.275-0.227c-0.069-0.151,0.069-0.303-0.069-0.378c-0.069,0-0.137,0-0.206,0.076 c0-0.076,0-0.076,0.069-0.076c0-0.076,0-0.151-0.069-0.151c-0.137,0.076-0.275,0.227-0.412,0.227c0-0.076,0-0.076,0-0.151 c0.206,0,0.275-0.151,0.481-0.151c-0.138-0.076-0.275-0.227-0.481-0.227c-0.069-0.076-0.069-0.076-0.137-0.151 c-0.138-0.227-0.069-0.605-0.206-0.832c-0.138-0.076-0.206-0.151-0.138-0.378c-0.137,0.151-0.275,0.378-0.343,0.605 c-0.137,0.303-0.275,0-0.481,0c0.069-0.454-0.137-0.681-0.412-0.908c-0.206,0-0.481,0.151-0.687,0 c0.069,0.076-0.069,0.227,0.069,0.227c-0.069,0.076-0.069,0.076-0.138,0.151c0,0.227,0,0.454-0.138,0.681 c0.413,0.378,0.069,0.908-0.275,1.135c0,0.303,0.069,0.605-0.069,0.908c0-0.076,0-0.076-0.069-0.076 c0.069,0.076-0.137,0.076-0.069,0.151c-0.275-0.227-0.344-0.681-0.206-1.059c-0.137,0-0.275,0-0.412,0.076c0-0.076,0-0.076,0-0.151 c-0.364-0.067-0.567-0.369-0.894-0.231c-0.001-0.226-0.07-0.451-0.275-0.526c0-0.378,0.275-0.681,0.413-0.984 c0.068,0,0.137,0,0.137,0c0.069-0.076,0-0.076-0.069-0.076c0.069,0,0.069,0,0.138,0c0.069,0,0.069-0.076,0.137-0.151 c-0.069-0.151-0.206-0.076-0.275-0.076c0.138-0.227,0.206-0.076,0.344,0v-0.227c0.069,0,0.137,0.151,0.206,0.076 c0-0.076,0.069-0.151,0.206-0.227c0,0,0.069-0.076,0.069-0.151c-0.137,0-0.344,0-0.412-0.151c0.137-0.076,0.275,0.151,0.412,0.076 c0-0.076,0-0.152,0.137-0.152c0-0.076,0-0.076,0-0.151c0.137-0.076,0.206,0.076,0.344,0c0-0.041-0.001-0.082-0.035-0.111 c0.145,0.062,0.339-0.163,0.448-0.343c-0.116,0-0.087-0.159-0.156-0.165c0.09-0.049,0.107-0.224,0.225-0.289 c-0.068,0-0.137,0-0.137,0s0-0.076,0-0.151H16.88c0,0.076,0,0.076,0,0.151c0,0.076,0.069,0.076,0.137,0.076 c-0.206,0.076-0.137,0.303-0.344,0.378c0,0.076,0,0.076,0,0.151c-0.069,0-0.137,0-0.137,0.076 c-0.137-0.076-0.069-0.227-0.069-0.303c0.137,0,0-0.076,0.069-0.151c-0.206-0.227-0.206,0.076-0.344,0.151 c-0.069-0.076-0.069-0.151-0.069-0.227l0.069-0.076c-0.137,0-0.206-0.076-0.343-0.076c0.069,0,0.137,0,0.137-0.076 c-0.069,0-0.069,0-0.069-0.076c0,0,0.069,0,0.137,0c-0.069-0.075-0.137-0.151-0.137-0.227l0.069-0.076 c-0.069-0.151-0.206-0.076-0.275-0.076l0.069-0.076h-0.137h-0.069v0.227l-0.069-0.076c-0.137,0.076-0.137,0.227-0.137,0.378 c0.069,0.151,0.206,0.151,0.412,0.151c-0.069,0.151-0.137,0.227-0.206,0.303c0.069,0,0.137,0,0.137-0.151c0,0.076,0,0.076,0,0.151 c-0.103,0.114-0.245,0.227-0.28,0.373c-0.063-0.065-0.063,0.007-0.063,0.081L15.3,18.216c0.069-0.075,0.069-0.151,0.069-0.227 c-0.138,0-0.206-0.151-0.344-0.076c0,0.076,0,0.076,0,0.151c0.069,0,0.138,0,0.206,0.076c-0.137,0.075-0.137-0.227-0.343,0.075 c-0.344,0.076-0.618-0.075-0.893-0.302c-0.069,0.151-0.206,0.151-0.344,0.227c0.093,0.051,0.186,0.032,0.279-0.032 c-0.053,0.048-0.107,0.106-0.142,0.184c-0.069,0.076,0.069,0.151,0.069,0.227c0,0.067-0.051,0.077-0.064,0.13 c-0.047-0.027-0.095-0.078-0.143-0.13c0.137,0,0-0.076,0.069-0.151c-0.069,0-0.069,0-0.137,0c-0.069,0-0.069-0.076-0.137-0.152 c-0.275,0.152-0.413,0.227-0.687,0.152c-0.069-0.152,0.137-0.152,0.206-0.227c-0.069-0.076-0.138-0.151-0.206-0.151 c-0.069,0-0.069,0-0.069,0.076c-0.162,0-0.276-0.079-0.385-0.159c0.104-0.147,0.209-0.293,0.317-0.437 c0.249,0.031,0.543-0.108,0.755,0.067c-0.069,0-0.137,0-0.137,0.076c-0.275-0.151-0.55,0-0.756,0.076 c0.137,0.303,0.549,0.076,0.687,0.454c0.275-0.151,0.687-0.076,0.825-0.454c0,0.076,0,0.076,0,0.151c0.206,0,0.412,0.227,0.618,0 c0-0.076,0-0.076,0-0.151c-0.069,0-0.137,0-0.137,0.076c0-0.076,0-0.076-0.069-0.076c0.138,0,0.206-0.151,0.377-0.106 c-0.033-0.12-0.171-0.196-0.239-0.272c-0.069-0.075-0.069,0-0.069,0.076c-0.069-0.076-0.138-0.151-0.206-0.227h0.069 c0-0.303-0.137-0.757-0.481-0.681c0.069,0.151,0,0.378,0.138,0.53c-0.069,0-0.069,0-0.069,0.076c-0.138,0-0.138-0.151-0.138-0.303 c-0.069-0.076-0.069-0.227-0.275-0.152c0.069,0.076,0.069,0.076,0.137,0.152c-0.069,0-0.206,0.076-0.275,0.076 c-0.069-0.076,0.138-0.151,0-0.227c-0.02-0.011-0.041-0.018-0.061-0.023c0.205-0.24,0.415-0.474,0.632-0.701 c0.085-0.033,0.15-0.033,0.253-0.033c0.113-0.063,0.087-0.177,0.074-0.3c0.062-0.062,0.125-0.123,0.188-0.184 c0.01,0.013,0.031,0.021,0.075,0.021c-0.068,0.001-0.068,0.001-0.069,0.075c0,0,0.068-0.001,0.135-0.002l-0.069,0.075 c0.043-0.001,0.078-0.002,0.107-0.007c-0.013,0.012-0.026,0.026-0.037,0.043c0.079,0.022,0.118-0.071,0.179-0.066 c-0.02,0.013-0.034,0.047-0.034,0.118h-0.069l0.069,0.076c0.137-0.076,0.206-0.151,0.412-0.076c-0.069,0-0.069,0-0.138,0v0.227 c0.138-0.076,0.275-0.076,0.412-0.151c-0.069,0-0.137,0.076-0.137-0.076c0.137,0,0.069-0.151,0.137-0.227 c-0.069-0.076-0.069-0.151-0.205-0.123c-0.07-0.028-0.139-0.028-0.208-0.028c0,0.151,0.069,0.151,0.138,0.227 c-0.138,0.076-0.206-0.151-0.344-0.151c0,0.076,0,0.076,0,0.151c0.069,0,0.138,0,0.138,0.076c-0.047,0-0.125-0.07-0.17-0.043 c-0.023-0.014-0.049-0.015-0.075-0.01c0.019-0.022,0.029-0.057,0.03-0.111c-0.092,0.052-0.12-0.065-0.164-0.125 c0.18-0.169,0.362-0.335,0.548-0.495c0.034,0.011,0.068,0.018,0.099,0.018c0.01-0.041,0.013-0.077,0.011-0.111 c0.05-0.042,0.1-0.085,0.149-0.126c0.017,0.085,0.124,0.083,0.182,0.082c-0.068,0.001-0.069,0.076-0.137,0.077 c0.068-0.001,0.137-0.077,0.135,0.071c0.137-0.077,0.34-0.082,0.276-0.301c-0.082,0.047-0.188-0.041-0.285-0.067 c0.097-0.078,0.196-0.156,0.295-0.231c0,0.004,0,0.006,0,0.011c0.064,0,0.068-0.002,0.068-0.064 c0.005-0.004,0.01-0.008,0.015-0.012c0.051,0.001,0.054,0.007,0.054,0.075c0.069,0,0.069,0,0.069-0.076 c0.069,0,0.206-0.076,0.275,0.076h0.206c-0.137,0.151-0.412-0.076-0.55,0.151c0.04,0.088,0.127,0.074,0.206,0.076v0.151 c0.069,0,0.137,0.076,0.206,0.076c0.065,0,0.131,0.067,0.136-0.059c0.046-0.016,0.092-0.067,0.139-0.016l0.206-0.227 c0.07-0.038,0.139-0.057,0.209-0.087c-0.001,0.004-0.003,0.006-0.003,0.011c0.069,0,0.137,0,0.158-0.051 c-0.02-0.006-0.038-0.009-0.055-0.012c0.034-0.022,0.069-0.051,0.103-0.089c-0.058-0.064-0.166-0.076-0.281-0.124 c-0.005-0.065-0.034-0.135,0.006-0.179c-0.069,0-0.069,0-0.137,0c-0.069,0-0.137,0-0.137,0s0-0.033,0-0.076v-0.076 c-0.058,0.032-0.116,0.022-0.174-0.004c0.063-0.043,0.127-0.087,0.191-0.129c0.063,0.069,0.126,0.133,0.189,0.133 c0.072-0.106,0.153-0.183,0.239-0.236c0.057-0.015,0.115-0.035,0.173-0.066c-0.035,0.013-0.07,0.021-0.105,0.031 c0.142-0.065,0.295-0.073,0.449-0.031c-0.137,0.151-0.412,0-0.55,0.151c0,0.076-0.069,0.076-0.069,0.151 c0.211,0.058,0.382-0.018,0.575-0.09c-0.015,0.021-0.025,0.05-0.025,0.09c0.048,0.009,0.09,0.009,0.13,0.003 c-0.045,0.02-0.089,0.042-0.13,0.072c0.066,0.146,0.196,0.152,0.328,0.219c-0.046,0.007-0.091,0.008-0.122,0.008 c-0.206-0.076-0.481-0.378-0.756-0.151c0,0.076,0,0.076,0,0.151c0.069,0.151,0.344,0.075,0.412,0.227 c-0.038,0-0.074-0.001-0.101-0.014c0.135,0.179,0.319-0.125,0.445,0.014c-0.053,0.116-0.145,0.099-0.217,0.085 c0.01,0.009,0.01,0.027,0.01,0.067c-0.206-0.151-0.481-0.076-0.687,0.076c0,0.076,0,0.076,0,0.151c0.069,0,0.069,0,0.137-0.076 c0.069-0.076,0.069,0.151,0.137,0.076c0.008-0.009,0.013-0.014,0.019-0.021c-0.032,0.064-0.049,0.13-0.088,0.173 c0.1-0.055,0.128,0.05,0.188,0.082c-0.057,0.018-0.118,0.02-0.188-0.006c-0.069,0-0.069-0.076-0.069-0.151 c-0.137,0-0.275-0.076-0.344,0.076c0,0.151,0.206,0.076,0.206,0.227c-0.138,0-0.275,0-0.412,0.076v0.031 c-0.009-0.006-0.02-0.011-0.035-0.01c0,0-0.069,0.075-0.039,0.048c-0.033,0.099,0.035,0.097,0.102,0.094c0-0.007,0-0.014,0-0.021 c0.119-0.033,0.188,0.155,0.316,0.084c-0.069,0-0.069-0.076-0.069-0.151c0.069,0.076,0.069,0.076,0.138,0.151 c0.084,0,0.133-0.003,0.159-0.008c0.057,0.008,0.121,0.008,0.185,0.008c-0.041,0-0.056-0.028-0.063-0.065 c0.041-0.012,0.132-0.111,0.132-0.011c0.069,0,0.069,0,0.069-0.076c0.068,0,0.068,0,0.068,0.076c0.069,0,0.138,0,0.138-0.076 c0.069,0.076,0.206,0.076,0.344,0.076c-0.069-0.227,0.343,0,0.275-0.303c-0.19,0.07-0.379-0.117-0.57-0.028 c0.018-0.029,0.02-0.075,0.02-0.123c0.138,0.076,0.344,0.076,0.55,0c-0.069-0.076,0.069-0.151-0.069-0.151 c0.137-0.076,0.275,0.076,0.412-0.076c-0.069,0-0.069,0-0.137,0c0-0.151,0.206,0,0.206-0.151h0.069c0-0.076,0-0.076,0-0.151h-0.412 c0.069-0.076,0.137-0.076,0.206-0.076c-0.069,0-0.069,0-0.137,0c0.137-0.076,0.275,0.076,0.412-0.076h-0.069h-0.26 c0.058-0.028,0.114-0.075,0.191-0.075l0.069,0.075c0.069-0.151,0.206-0.075,0.275-0.075c0-0.039,0-0.077-0.009-0.106 c0.141,0.014,0.281-0.018,0.422-0.121l-0.067-0.074c0.025-0.001,0.049-0.002,0.067-0.002c0-0.076,0-0.076,0-0.151 c0.344,0.076,0.619-0.303,0.962-0.378c-0.116-0.032-0.232-0.022-0.348,0.004c0.002-0.002,0.003-0.002,0.005-0.004 c-0.138-0.075-0.275,0.076-0.344-0.075c0.412,0,0.825,0,1.168-0.303c-0.069-0.152-0.206-0.076-0.344-0.076c0-0.076,0-0.076,0-0.151 c-0.15,0.11-0.373,0.061-0.562,0.084c0.045-0.042,0.091-0.084,0.15-0.084c-0.137,0-0.275-0.076-0.343,0.076 c-0.206-0.151-0.413-0.076-0.618-0.076c-0.068,0-0.069,0.073-0.136,0.075c-0.117-0.062-0.248-0.106-0.345,0 c0-0.076-0.069-0.076-0.137-0.076c0,0.03-0.001,0.046-0.006,0.057c0.097-0.007,0.155,0.107,0.212,0.17 c0,0.076-0.069,0.076-0.138,0.076l0.069-0.076c-0.069-0.076-0.206-0.076-0.275-0.152c-0.018,0.039-0.045,0.038-0.077,0.02 c2.057-1.046,4.347-1.63,6.762-1.63c4.226,0,8.073,1.788,10.952,4.714c-0.153,0.054-0.305,0.124-0.458,0.225l0.069,0.076 c0,0.151-0.206,0.151-0.206,0.302c-0.069,0-0.137,0-0.137,0c-0.069,0.076,0,0.076,0.069,0.076c0,0.151-0.206,0.076-0.206,0.227 c0,0.076,0,0.152-0.069,0.227c0,0.076-0.069,0.151,0.047,0.188c0.091,0.039,0.091,0.115,0.16,0.115c0.069,0,0.069,0,0.137,0 l-0.069,0.076c0.069,0.227,0.275,0.151,0.481,0.151c-0.412-0.303-0.206-0.908,0.137-1.135l-0.069-0.076 c0.069,0.076,0.137-0.076,0.206,0c0.048-0.078,0.104-0.138,0.165-0.185c0.367,0.39,0.718,0.799,1.051,1.225 c-0.056,0.082-0.111,0.164-0.185,0.246c0.069,0.151,0.069,0.303,0.069,0.454c0.069,0,0.069,0,0.137,0v0.227 c0.069,0,0.069,0,0.138,0.075c0.069,0.152-0.138,0.076-0.069,0.152c-0.275-0.378-0.687-0.53-1.1-0.605 c0,0.076-0.069,0.151,0.138,0.227c-0.138,0-0.138,0.151-0.275,0.151c0-0.076,0-0.076,0-0.151c-0.275,0.151-0.55,0-0.825,0.151 c-0.069-0.076,0.137-0.151,0.069-0.227c-0.206,0-0.412,0.151-0.618,0.151c0,0.076,0,0.076,0,0.151c0-0.075-0.069-0.075-0.137-0.075 c0,0.075,0.137,0.227-0.069,0.227c-0.069-0.076-0.206-0.076-0.343-0.152c0-0.075,0-0.075,0-0.151h0.206 c0-0.303-0.275-0.227-0.481-0.303c0,0.076,0.069,0.076,0.137,0.076c0,0.227,0.137,0.53,0.069,0.757 c0-0.151-0.069-0.151-0.138-0.227h-0.206c-0.137,0.076-0.344,0.227-0.137,0.454c-0.137,0.076-0.275-0.076-0.412-0.076 c0-0.076,0-0.151,0-0.151h-0.137c0,0,0,0.076,0,0.151c0.069,0.151,0.206,0.151,0.206,0.303c-0.236-0.065-0.471-0.243-0.533-0.531 c0.112-0.007,0.052-0.078,0.052-0.15c-0.168-0.062-0.29-0.271-0.441-0.389c0.32,0.178,0.682,0.261,0.991,0.465 c0.137-0.076,0.275-0.076,0.344-0.227c-0.137-0.454-0.618-0.529-0.962-0.832l-0.069,0.076c-0.137,0-0.275-0.151-0.412-0.303 c0.026,0,0.051,0.001,0.074,0.006c-0.019-0.021-0.036-0.04-0.074-0.081c-0.206,0.227-0.343-0.076-0.481-0.076 c0.069,0,0.206,0.076,0.275-0.076c-0.123,0-0.192-0.182-0.304-0.219c0.007-0.024-0.014-0.034-0.108-0.008h-0.206 c0,0.076,0,0.076,0,0.151c-0.069,0-0.069-0.076-0.069-0.151c-0.069,0.076-0.069,0.151-0.137,0.227v-0.303c-0.069,0-0.069,0-0.138,0 c-0.069,0.076-0.206,0.152-0.206,0.303c-0.061-0.134-0.175-0.149-0.296-0.151c0.022,0.03,0.036,0.092,0.065,0.09 c-0.213,0.12-0.591-0.073-0.525,0.364c-0.069,0-0.137-0.076-0.206-0.076c0,0.076,0,0.076,0.069,0.076c0,0.075,0,0.151-0.069,0.151 c-0.069,0-0.069,0-0.069-0.076c-0.137,0-0.137,0.076-0.206,0.151c-0.069,0.227-0.206,0.378-0.343,0.53c0.069,0,0.069,0,0.069,0.076 h-0.206c-0.069,0.076,0.069,0.151,0.069,0.227c-0.069,0-0.069,0-0.137,0c-0.206,0.151-0.344,0.303-0.619,0.303 c0.069,0,0.069,0,0.069,0.076c0,0-0.069,0-0.137,0c0,0.151-0.206,0.151-0.206,0.303v0.454c0.069,0,0.069,0,0.138,0 c0,0.076,0,0.151-0.069,0.151c0,0.076,0.206,0,0.137,0.151c-0.068,0-0.068,0-0.137,0c0,0.076,0.069,0.151,0.069,0.151 c0.343,0.227,0.687-0.076,0.824-0.378c0,0.303,0.206,0.53,0.344,0.757c0.069,0.075,0,0.227,0.069,0.303l-0.069,0.076 c0.069,0.151,0.206,0.151,0.344,0.151c0-0.076,0-0.076,0-0.151c0.069,0,0.138,0,0.138-0.076l0.069,0.076 c0.069-0.227,0.137-0.378,0.137-0.605c0.206,0,0.206-0.227,0.275-0.378c0-0.227-0.275-0.151-0.275-0.303v-0.454 c0.138-0.076,0.275-0.151,0.412-0.227c0.275-0.076,0.138-0.378,0.275-0.606c0.069,0.076,0.206,0.076,0.344,0.076 c0.343,0.303-0.206,0.454-0.275,0.681c-0.069,0-0.069,0-0.138,0c0,0.227,0,0.53,0.138,0.757h0.206c0,0.076,0,0.151,0.069,0.151 c0.275,0.076,0.549-0.151,0.824-0.076c0,0.076,0,0.076,0,0.151c0.022,0,0.044,0.001,0.065,0.004 c-0.065,0.071-0.067,0.074-0.134,0.148c0-0.076-0.068-0.076-0.137-0.076l-0.069,0.076c-0.206-0.227-0.343,0.076-0.549,0 c0,0.076,0,0.076,0,0.151c0.206,0,0.137,0.227,0.275,0.378c-0.138,0.227-0.344-0.076-0.413-0.151c0,0.076-0.069,0.076-0.137,0.076 c-0.138,0.227,0,0.454,0.069,0.606c-0.206,0.075-0.412,0.151-0.618,0c-0.206,0.075-0.412,0.227-0.618,0.227 c0-0.076,0-0.076,0-0.151c-0.138,0-0.344-0.075-0.481,0.076c0.069-0.076-0.069-0.151,0.069-0.151H29.18 c-0.206-0.227,0-0.454,0.137-0.606c-0.137,0.076-0.137-0.151-0.275-0.076c-0.206,0.076-0.206,0.151-0.206,0.378 c0.069,0,0.069,0,0.138,0c-0.069,0.227,0.138,0.378,0,0.605c-0.069-0.076-0.069-0.151-0.138-0.151 c-0.412-0.151-0.618,0.227-0.756,0.605c-0.138-0.076-0.275,0-0.344,0.151c0,0.076,0,0.151,0,0.151s-0.069,0-0.137,0 c-0.069,0-0.069,0.076-0.069,0.151c-0.138,0-0.275,0.076-0.412-0.151c0,0.076-0.069,0.227,0.069,0.303l-0.069,0.076 c-0.206-0.151-0.344-0.076-0.55,0c0.069,0.378,0.618,0.151,0.55,0.529c0,0.152,0.275,0,0.206,0.227c-0.069,0-0.069,0-0.137,0 c0,0.076,0.069,0.076,0.137,0.076c-0.069,0.227-0.069,0.378-0.069,0.605c-0.481-0.076-1.031-0.076-1.512-0.076 c0,0.076,0,0.076,0,0.151c0.275,0.303-0.138,0.757-0.069,1.211c0.069,0,0.069,0,0.137,0c-0.137,0.151-0.069,0.302-0.069,0.454 c0.275,0,0.55,0,0.687,0.303c0.069-0.076,0.069-0.076,0.137-0.151c0.343-0.076,0.756-0.076,0.893-0.53 c-0.138-0.454,0.275-0.757,0.618-0.908v-0.454c0.275,0,0.412,0.151,0.687,0.151c0.138-0.151,0.344-0.227,0.481-0.303 c0.206,0.076,0.206,0.303,0.344,0.454v0.151c0.137,0.151,0.275,0.227,0.412,0.303c0.069,0.227,0.344,0.303,0.481,0.53v0.454 c0.069-0.227,0.206-0.454,0.137-0.681c0.069,0,0.069,0,0.137,0c0,0.076,0,0.151,0.137,0.151c-0.069-0.302-0.481-0.378-0.549-0.681 c-0.069,0-0.069,0-0.138,0c-0.206-0.151-0.275-0.53-0.481-0.681c0-0.076,0.069-0.076,0.138-0.076 c-0.069-0.076-0.138-0.076-0.138-0.227c0.124-0.068,0.302-0.012,0.286,0.165c0.037-0.025,0.1-0.043,0.058-0.09 c0.137,0.076,0.206,0.303,0.275,0.454c0.069,0,0.137,0,0.206,0.076c0.206,0.151,0.343,0.378,0.481,0.53 c-0.069,0.303,0.137,0.53,0.137,0.757c0.069,0,0.069,0,0.138,0c0.068,0.076-0.138,0.076-0.069,0.151 c0.064,0.023,0.128,0.047,0.191,0.07c-0.004,0-0.008-0.002-0.013-0.002c0.005,0.166,0.012,0.415,0.159,0.503l0.07-0.081 l0.074,0.086c-0.002-0.083-0.004-0.166-0.068-0.287c0.061,0.038,0.061,0.038,0.133,0.04c-0.051-0.059-0.138-0.157-0.234-0.215 c0.102,0.037,0.204,0.075,0.305,0.112v-0.089c0.022,0.023,0.044,0.046,0.065,0.068c-0.011-0.033-0.039-0.079-0.043-0.114v0 c-0.012-0.122-0.15-0.137-0.194-0.14c-0.079-0.148,0.013-0.337-0.172-0.405c0.137,0,0.206,0.076,0.275,0.152 c0.069,0.075,0.069-0.152,0.137-0.076c-0.069-0.076-0.137-0.076-0.137-0.227c0.275,0.151,0.55,0.076,0.825,0.076 c-0.069-0.227-0.344-0.378-0.275-0.681h0.206c0-0.076-0.069-0.076-0.069-0.152c0.137-0.227,0.206-0.53,0.412-0.681 c0,0.151,0.069,0,0.138,0.075c-0.069,0-0.069,0-0.138,0c0.069,0.151,0.206,0.151,0.344,0.151c0,0.076,0,0.151-0.206,0.151 c0.114,0.063,0.18,0.128,0.239,0.234c0.021-0.004,0.036-0.007,0.036-0.007c0.069,0,0.138,0,0.206,0.076l-0.069-0.076l0.069-0.076 c-0.137-0.076-0.069-0.227-0.069-0.303c0.18-0.132,0.361-0.149,0.54-0.151c-0.036,0.04-0.032,0.151-0.128,0.151 c0,0.076,0,0.076,0.069,0.076c-0.069,0.151-0.138,0.227-0.275,0.227c0.275,0.227,0.55,0.454,0.687,0.757l0.137,0.076v0.227 c-0.206,0.303-0.549,0-0.824-0.076c0-0.076,0-0.076,0-0.151l-0.069,0.076c-0.069,0-0.069-0.076-0.069-0.151 c0,0.151-0.069,0-0.137,0.076l-0.069-0.076c-0.191,0.07-0.383,0.267-0.628,0.236c0.009,0.009,0.01,0.027,0.01,0.067 c-0.137,0.076-0.343,0.076-0.481,0.076v0.227l0.069-0.076v0.369c0.071,0.024,0.083,0.177,0.138,0.237c0,0.076,0,0.151-0.069,0.151 c0.069,0,0.069,0,0.137,0c-0.069,0-0.137,0-0.137,0.076c0.206,0,0.343-0.076,0.549,0.151c0-0.076,0-0.151,0.069-0.227 c0.138,0.151,0.275,0.227,0.413,0.303c0-0.076,0.069-0.076,0.069-0.152h0.344c0,0.152-0.137,0.227-0.069,0.378l0.069,0.076 c-0.206,0.302-0.137,0.757-0.481,0.984c-0.137-0.303-0.412-0.151-0.618,0c-0.206-0.076-0.412-0.227-0.618-0.227 c0-0.076,0-0.076,0-0.151c-0.275,0.076-0.344-0.151-0.549-0.227c-0.069,0.076-0.206,0.076-0.275,0.151v0.303 c-0.138,0,0,0.227-0.138,0.227c-0.206-0.378-0.618-0.227-0.756-0.681c-0.275-0.076-0.619,0-0.756-0.303 c0,0.151-0.069,0-0.137,0.076l-0.069-0.076c0.069-0.227,0.343-0.454,0.137-0.681c-0.069-0.076,0.137-0.076,0.069-0.151 c-0.137,0-0.206-0.151-0.275-0.227c-0.069,0.076-0.137,0.151-0.206,0.151c-0.206-0.151-0.412,0-0.619,0 c-0.068,0-0.068-0.076-0.137-0.076c-0.412,0-0.756,0.151-1.1,0.454c-0.275,0.076-0.481-0.151-0.756-0.076 c-0.069,0-0.069-0.076-0.069-0.151c-0.138,0.076-0.138,0.303-0.206,0.454c-0.138,0.227-0.343,0.303-0.55,0.454 c0,0.227-0.137,0.454-0.069,0.681c-0.068,0.076-0.068,0.151-0.137,0.227c-0.137,0.227-0.344,0.303-0.55,0.378 c-0.137,0.605-0.55,1.059-0.756,1.589c0,0.605,0.412,1.362-0.137,1.816c0.069,0.151,0.137,0.378,0.275,0.454 c-0.069,0-0.069,0-0.137,0c0.137,0.53,0.687,0.908,0.825,1.438c0.137,0.076,0.275,0.227,0.344,0.378 c0.069,0.227,0.344,0.151,0.481,0.303c0.413-0.075,0.825-0.227,1.237-0.075c0.412-0.378,0.962-0.454,1.374-0.152 c0,0.076,0,0.152,0,0.152h0.137c0,0,0,0.075,0,0.151c0-0.076,0.069-0.076,0.069-0.151c0.069,0,0.137,0,0.206,0.075 c0.069,0,0.069-0.075,0.069-0.151c0.412,0.151,0.275,0.53,0.137,0.832c0.069,0,0.069,0,0.138,0c-0.344,0.454,0,0.908,0.275,1.287 v0.227c0.206,0.529,0.344,1.21-0.138,1.589c-0.137,0.227,0,0.454-0.137,0.681c0.275,0.454,0.481,0.908,0.343,1.514 c0.275,0.302,0.275,0.756,0.481,1.059c-0.069,0.075-0.137,0.075-0.137,0.151c0,0.076,0,0.151,0,0.151s0.069,0,0.137,0 c0.069,0,0.069,0.076,0.137,0.151c0-0.151,0.206,0,0.206-0.151c0.275,0,0.481-0.151,0.756-0.076 c0.481-0.303,0.825-0.757,1.168-1.211c-0.069-0.151,0.069-0.227,0.069-0.378h-0.069c0.206-0.151,0.55-0.378,0.55-0.757v0.076 c0.069-0.152-0.069-0.378-0.069-0.53c0.343-0.378,0.756-0.529,1.031-0.984c0.069-0.53-0.137-1.059,0-1.589l-0.069-0.075 c0.069-0.378,0.275-0.757,0.481-1.06c0.55-0.378,0.756-1.059,1.168-1.513c0.137-0.378,0.275-0.757,0.412-1.135 c-0.069-0.076-0.069-0.151-0.069-0.227c-0.343,0.227-0.756,0.53-1.168,0.151c0-0.076,0.069-0.076,0.138-0.076v-0.227h0.275 c0.069,0,0.069-0.076,0.069-0.151c0.137,0.076,0.275-0.076,0.412-0.076c0-0.076,0-0.151,0.206-0.151 c0.137-0.076,0.275-0.151,0.344-0.303c0-0.076,0-0.076,0-0.151c0.275,0,0.412-0.378,0.687-0.53 c-0.069-0.303,0.206-0.53,0.343-0.757c-0.179-0.263-0.513-0.412-0.508-0.743c-0.01,0.021-0.023,0.042-0.042,0.063 c-0.069,0.151-0.206,0.227-0.275,0.303h-0.275v-0.454c-0.138,0.076,0,0.227-0.138,0.303c0-0.303-0.069-0.53-0.275-0.757 c0-0.151-0.137-0.378-0.069-0.53c0,0.076,0.069,0.076,0.138,0.076c0-0.076,0-0.076,0-0.151c0,0.151,0.137,0,0.206,0.076 c0,0.444,0.264,0.815,0.662,0.831c-0.014,0.013-0.027,0.026-0.03,0.043c-0.001,0.005,0.141-0.085,0.12-0.095 c-0.006-0.001-0.012,0-0.017,0l0.021-0.023c0.069,0.454,0.618,0.53,0.962,0.379l0.069,0.075c0.069-0.151,0.206-0.075,0.275-0.075 c0,0.227,0.137,0.605,0.412,0.529c-0.069,0.076-0.069,0.151-0.206,0.151c0.069,0.076,0.069,0.227,0.206,0.303 c0.207,0.076,0.207-0.151,0.207-0.303c0.137,0.378,0,0.832,0.068,1.211c0.137,0.303,0.137,0.681,0.275,0.984v0.378 c0,0.151,0.137,0.227,0.206,0.303c-0.069-0.076,0.137-0.151,0.069-0.227c0.069,0,0.137,0,0.137,0s0-0.076,0-0.152 c0.069,0,0.138-0.076,0.138-0.151c-0.069-0.303,0.069-0.606,0-0.908c0.343-0.454,0.825-0.833,0.962-1.362 c0.069,0.151,0.206,0.076,0.275,0.076c0-0.076,0-0.076,0-0.151c0,0.076,0,0.076,0.069,0.076v-0.303 c0.069,0.076,0.069,0.151,0.069,0.227c0-0.076,0-0.076,0.069-0.076c0,0.076,0.138,0.151,0.069,0.303 c0.131,0.192,0.261,0.414,0.287,0.648c-0.009,0.098-0.02,0.196-0.03,0.294c-0.013,0.039-0.029,0.079-0.05,0.118 C41.08,31.005,41.093,31.005,41.106,31.005z M11.471,23.914c-0.017,0.023-0.044,0.041-0.088,0.053 C11.383,23.853,11.422,23.911,11.471,23.914z M16.812,18.216l0.069-0.075c0.021,0.046,0.046,0.077,0.072,0.098 C16.922,18.225,16.879,18.216,16.812,18.216z M16.331,14.509c-0.068,0-0.136,0-0.137-0.075 C16.25,14.436,16.302,14.446,16.331,14.509z M17.636,14.585c-0.038,0.042-0.077,0.084-0.116,0.121 C17.545,14.643,17.551,14.585,17.636,14.585z M19.148,13.752c0.049-0.054,0.134-0.069,0.204-0.074 C19.284,13.752,19.216,13.752,19.148,13.752z M19.56,13.298c0.067-0.074,0.15-0.075,0.234-0.075 C19.716,13.249,19.638,13.277,19.56,13.298z M36.966,24.212c-0.084,0.019-0.087-0.057-0.091-0.133 c0.064,0.004,0.127,0.007,0.13,0.084C37.005,24.163,36.975,24.2,36.966,24.212z M36.968,24.212L36.968,24.212L36.968,24.212 L36.968,24.212z M36.9,24.697c-0.063-0.003-0.126-0.007-0.13-0.084c-0.065-0.078,0.044-0.218-0.066-0.304 c0.003-0.026,0.001-0.054-0.013-0.086c0.063,0.004,0.063,0.004,0.067,0.081c0.03,0.002,0.046-0.015,0.052-0.042 c0.002,0.012,0.005,0.026,0.011,0.046C37.015,24.394,36.831,24.539,36.9,24.697z M36.644,24.606 c-0.041-0.092,0.005-0.154,0.037-0.219C36.692,24.463,36.73,24.557,36.644,24.606z M36.815,24.232c0.002-0.024,0.001-0.052,0-0.08 c0.003,0.077,0.067,0.081,0.108,0.112C36.997,24.427,36.848,24.216,36.815,24.232z M36.194,26.308 c-0.126,0.074-0.252,0.149-0.383,0.065c-0.131-0.085-0.136-0.244-0.265-0.249c-0.07-0.162,0.055-0.316-0.015-0.477 c-0.006-0.159,0.256-0.067,0.121-0.232c-0.137-0.204-0.276-0.428-0.367-0.659c-0.091-0.231-0.134-0.468-0.079-0.699l0.069,0.082 c0.123-0.148,0.314-0.214,0.437-0.361c0.072,0.159,0.194,0.012,0.262,0.094c0.007,0.155,0.014,0.31,0.085,0.469 c-0.132-0.085-0.196-0.089-0.326-0.097c0.003,0.078,0.007,0.156,0.01,0.234c-0.004-0.078-0.004-0.078-0.068-0.082l-0.061,0.074 c0.133,0.086,0.139,0.242,0.211,0.403c0.065,0.003,0.065,0.003,0.129,0.007c0.074,0.239-0.105,0.623,0.155,0.714 c0.003,0.079-0.123,0.152-0.056,0.234l0.062-0.076c0.13,0.085,0.072,0.24,0.056,0.339v0C36.189,26.149,36.192,26.228,36.194,26.308 z M33.922,30.551c0.137-0.378-0.138-0.832-0.275-1.211c0.069,0,0.069,0,0.069-0.076c-0.069,0-0.137,0-0.137-0.076 c0-0.369-0.136-0.738-0.261-1.108c0.065,0.111,0.152,0.218,0.192,0.351c0-0.151-0.069-0.378,0.069-0.53 c0,0.151,0.069,0.303-0.069,0.454c0.344,0.227,0.413,0.832,0.687,1.211v0.454c0.459,0.433,0.417,1.142,0.473,1.731 c-0.274-0.298-0.609-0.525-0.541-0.975C34.059,30.702,33.99,30.627,33.922,30.551z M32.341,19.882 c-0.067,0-0.134-0.001-0.137-0.072C32.25,19.816,32.295,19.832,32.341,19.882z M31.791,16.774v0.081 C31.733,16.855,31.761,16.815,31.791,16.774z M31.711,25.466c0.005,0.005,0.01,0.01,0.015,0.015c-0.001,0-0.003,0-0.004,0 C31.718,25.476,31.715,25.471,31.711,25.466z M33.875,35.715C33.907,35.64,33.853,35.615,33.875,35.715L33.875,35.715z M28.637,34.711C28.637,34.719,28.637,34.726,28.637,34.711L28.637,34.711z M20.174,45.363c-0.026-0.121-0.159,0.018-0.229-0.056 c0.07,0.073,0.205,0.006,0.277,0.15C20.22,45.386,20.22,45.386,20.174,45.363z M19.541,44.984 c-0.015-0.045-0.083-0.047-0.151-0.049c0.07,0.073,0.14,0.147,0.207,0.078C19.596,45.012,19.528,45.01,19.541,44.984z M11.174,23.632L11.174,23.632c0.072,0.033,0.072,0.033,0.14,0.033c-0.069-0.303-0.206-0.53-0.55-0.53 c0.069,0.227,0.275,0.227,0.275,0.454c0-0.076,0.069-0.076,0.137-0.076C11.177,23.589,11.177,23.589,11.174,23.632z M20.555,45.211 c-0.206-0.104-0.346-0.249-0.489-0.465c-0.139-0.075-0.203,0.063-0.271,0.061c0.002,0.071,0.004,0.142,0.072,0.144 c-0.002-0.071,0.066-0.068,0.135-0.066c-0.066,0.068-0.066,0.068-0.133,0.137c-0.064,0.14,0.205,0.007,0.141,0.146 c-0.132-0.137-0.255,0.038-0.383-0.001c0.131,0.062,0.275,0.069,0.419,0.073c0.154,0.004,0.308,0.009,0.446,0.084 c-0.002-0.071,0.067-0.069,0.135-0.067C20.626,45.185,20.626,45.185,20.555,45.211z M10.424,21.827l-0.001-0.005 c-0.14,0.002-0.025,0.205,0.001,0.172C10.451,21.962,10.451,21.856,10.424,21.827z M17.671,17.295 c0.027,0.003,0.054-0.004,0.082-0.021c0.027-0.035-0.166,0-0.172,0.002C17.593,17.298,17.662,17.377,17.671,17.295z M17.907,17.377 c0.018-0.073-0.175,0.079-0.183,0.139C17.72,17.547,17.896,17.422,17.907,17.377z M16.553,15.879 c0.125-0.106,0.122-0.034,0.186,0.035c0.207-0.153,0.537-0.027,0.745-0.18c0.061,0.139,0.199,0.061,0.266,0.057 c0.135-0.007-0.058-0.21,0.209-0.153c0.077-0.216-0.138,0.078-0.132-0.064c0.067-0.003,0.138-0.078,0.141-0.149 c-0.044,0.002-0.06,0.003-0.084,0.004c-0.062,0.003-0.124,0.006-0.186,0.009l0.07-0.074c-0.267-0.059-0.472,0.022-0.747,0.178 l0.067-0.003c-0.138,0.078-0.199-0.063-0.334-0.056c-0.003,0.072-0.07,0.075-0.137,0.078c-0.062-0.141-0.197-0.136-0.261-0.205 c0.067-0.003,0.199,0.064,0.271-0.083c-0.207,0.153-0.193-0.282-0.399-0.13c-0.07,0.075-0.137,0.078-0.204,0.08 c-0.061-0.217-0.333-0.136-0.468-0.132c-0.002,0.074-0.002,0.074,0.066,0.072c-0.067,0.002-0.067,0.002-0.069,0.075 c0.135-0.004,0.131,0.142,0.268,0.065l-0.07,0.075c0.132,0.068,0.204-0.08,0.339-0.085c0.13,0.14,0.055,0.36,0.05,0.505 C16.27,15.936,16.407,15.858,16.553,15.879z M18.117,17.536c0.137,0.076,0-0.151,0.137-0.151h-0.137 C18.117,17.384,18.117,17.46,18.117,17.536z M18.117,18.747c-0.046,0-0.092-0.001-0.137-0.004c0,0.002,0,0.002,0,0.004 C18.049,18.747,18.049,18.747,18.117,18.747z M17.705,19.051c-0.068-0.026-0.063,0.096-0.005,0.088 C17.804,19.125,17.769,19.009,17.705,19.051z M18.086,17.299c-0.037,0.01-0.106,0.01-0.106,0.086 C18.049,17.309,18.117,17.46,18.086,17.299z M16.056,14.812c-0.069,0-0.206,0-0.291-0.037c-0.052,0.112-0.121-0.039-0.121,0.112 C15.781,14.812,15.918,15.039,16.056,14.812z M14.906,17.987C14.984,17.97,14.878,17.822,14.906,17.987L14.906,17.987z M15.163,17.536c0.206,0.227-0.275,0.076-0.138,0.303c0.138,0,0.206,0.151,0.344,0.076c0.069,0,0.069-0.076,0.137-0.151 c0,0-0.069,0-0.099-0.037c0.03-0.114-0.038-0.114-0.107-0.19C15.3,17.536,15.231,17.536,15.163,17.536z M15.558,15.628 c0.016,0.002,0.075,0.017,0.083-0.019c0.016-0.075-0.151,0.021-0.157,0.027C15.52,15.723,15.536,15.625,15.558,15.628z M15.369,16.628c0-0.076,0-0.076,0-0.151c-0.015,0-0.03,0-0.045,0.001c0.071-0.081,0.095-0.192,0.045-0.304 c-0.069,0.151-0.206,0-0.344,0.076c-0.137,0-0.137,0.075-0.137,0.227c0-0.076,0.069-0.076,0.137-0.076 c0,0.076-0.137,0.151-0.069,0.227c-0.138,0.076-0.206-0.151-0.344-0.151v0.227c0.206,0.151,0.412,0.151,0.55,0.378l0.069-0.076 l-0.069-0.076h0.275c0-0.151,0-0.227,0.034-0.352C15.437,16.552,15.369,16.628,15.369,16.628z M15.945,15.661 c-0.13-0.141-0.334-0.06-0.408,0.161c0,0,0.047-0.002,0.054-0.003c0.076,0.143,0.212,0.065,0.346,0.06l0.07-0.075 C15.94,15.806,15.943,15.734,15.945,15.661z M20.179,17.763c-0.069,0-0.137,0-0.137,0.076c0-0.076,0-0.151,0.069-0.151h-0.206 c0-0.076,0-0.076,0-0.151c-0.206,0.076-0.344-0.076-0.55-0.151c0.069-0.076,0.069-0.151,0.069-0.227c0,0.151,0.069,0,0.137,0.076 l0.069-0.076c-0.069-0.076-0.206,0.151-0.206-0.076c0-0.076,0-0.076,0.069-0.076c0-0.076,0-0.151-0.069-0.151 c-0.069,0.076-0.069,0.076-0.137,0.151c-0.034,0-0.061-0.001-0.085-0.002c-0.016,0.001-0.035,0.002-0.052,0.002 c0.002-0.002,0.004-0.003,0.006-0.005c-0.155-0.015,0.096-0.065,0.128-0.07c0.062-0.03,0.111-0.067,0.072-0.152 c-0.069-0.076-0.206,0.076-0.274-0.076l-0.069,0.076c0-0.076,0-0.076,0.008-0.118c-0.076-0.184-0.214-0.109-0.282-0.109 l-0.069,0.076c0-0.076,0-0.076,0-0.151c-0.069,0.227-0.137,0.076-0.206,0c0,0,0-0.076,0-0.152H17.98l0.069,0.076 c0,0.076-0.069,0.076-0.138,0.076l-0.069-0.076c0,0.141-0.179,0.019-0.204,0.125c0.015-0.134,0.131-0.21,0.066-0.352 c-0.137,0.076,0-0.227-0.137-0.151c-0.137,0.076-0.413,0-0.481,0.227l0.069,0.075c-0.069,0-0.069,0-0.137,0 c-0.069,0.152,0.069,0.227,0.069,0.303c-0.069-0.076-0.137,0.076-0.206,0.076h0.206c0.054,0.119-0.061,0.145-0.079,0.224 c-0.117-0.013,0.006-0.222-0.127-0.149v-0.076v-0.303c0-0.227,0.275-0.151,0.275-0.378c-0.137-0.076-0.275,0.076-0.412,0.076 c-0.138,0.076-0.206,0.227-0.343,0.303c0,0.151,0.069,0.378-0.069,0.53c0.138,0.076,0.275-0.076,0.344,0.076 c-0.069,0-0.206-0.076-0.275,0.076c0.275,0.227,0.687,0.076,1.031,0.227l-0.069-0.075h0.481c-0.069-0.076,0.069-0.152-0.069-0.152 h0.206c0.069,0,0.069,0.076,0.069,0.152h0.206c0,0.075,0,0.151,0,0.151l0.069,0.076l0.069-0.076c0,0.076,0,0.151,0,0.151 s0.069,0,0.137,0c0.413,0.227-0.069,0.529-0.206,0.757c0.069,0,0.069,0,0.137,0c0,0.151-0.069,0.151-0.137,0.151 c-0.206-0.076-0.412,0.151-0.618,0.227c0.092,0.05,0.183,0.066,0.275,0.072c0.001-0.145,0.069-0.072,0.137-0.072 c0,0.151,0.069,0,0.137,0.076c0-0.151,0.069,0,0.138-0.076c0.069,0.076,0.206,0.151,0.344,0.151c0,0.076-0.069,0.076-0.138,0.076 c0,0.076,0.069,0.076,0.069,0.151h0.275c0,0.076,0,0.076,0,0.151c0.137,0,0.275,0,0.412,0.076l0.069-0.076 c-0.069-0.151-0.206-0.227-0.343-0.378c0.206,0.076,0.412,0,0.549,0.227c0-0.076,0-0.076,0-0.151c0-0.076,0.069-0.076,0.138-0.151 c-0.138-0.151-0.206-0.303-0.413-0.378c0-0.076,0-0.076,0.069-0.076c-0.069,0-0.137-0.151-0.206-0.151c0.069,0,0.137,0,0.137,0 s0-0.076,0-0.151c0.052,0,0.104,0,0.126-0.034c0.012,0.062,0.136,0.123,0.08,0.185c0.035-0.038,0.086-0.057,0.138-0.076 c-0.069,0.076,0,0.227,0.069,0.303c0.069,0,0.069,0,0.137,0c0-0.227,0.138-0.152,0.275-0.303c-0.069-0.151,0.206-0.076,0.069-0.227 C20.179,17.838,20.179,17.838,20.179,17.763z M17.006,16.941c-0.023-0.025-0.074,0.046-0.126-0.011h0.127 C17.006,16.934,17.006,16.937,17.006,16.941z M17.843,16.325c0.137,0,0.344-0.151,0.481-0.075c0-0.303-0.343-0.227-0.508-0.214 c-0.041-0.013-0.11-0.013-0.11-0.013s0,0.076,0,0.151C17.843,16.098,17.705,16.325,17.843,16.325z M17.986,17.899 c0.064,0.105,0.234,0.02,0.325-0.077c-0.016-0.054-0.009-0.122,0.007-0.183c0,0-0.097-0.054-0.128-0.015 C18.089,17.607,17.937,17.809,17.986,17.899z M19.201,17.005c0.048-0.004,0.085-0.018,0.085-0.074c0,0-0.002,0-0.004,0.001 c-0.046,0.022-0.097,0.041-0.128,0.07C19.166,17.003,19.182,17.004,19.201,17.005z"></path> <g> <path style="fill:#162E55;" d="M24.94,9.894c10.869,0,18.985,6.86,18.985,18.116c0,10.821-7.633,19.758-19.275,19.758 c-13.237,0-18.744-10.29-18.744-18.985C5.907,20.957,11.607,9.894,24.94,9.894z M25.955,45.932c4.348,0,13.333-2.512,13.333-16.57 c0-11.594-7.053-17.826-14.686-17.826c-8.068,0-14.106,5.314-14.106,15.893C10.496,38.686,17.259,45.932,25.955,45.932z"></path> </g> </g> <g> </g> <g> </g> <g> </g> <g> </g> <g> </g> <g> </g> </svg> 